<?xml version="1.0" encoding="UTF-8"?>
<svg id="Camada_2" data-name="Camada 2" xmlns="http://www.w3.org/2000/svg" viewBox="0 0 791.08 191.03">
  <defs>
    <style>
      .cls-1 {
        letter-spacing: 0em;
      }

      .cls-2 {
        fill: none;
      }

      .cls-2, .cls-3 {
        stroke-width: 0px;
      }

      .cls-4 {
        letter-spacing: -.02em;
      }

      .cls-5 {
        font-family: Roboto-Regular, Roboto;
        font-size: 24px;
      }

      .cls-5, .cls-6 {
        fill: #191a13;
        stroke: #1d1d1b;
        stroke-miterlimit: 10;
      }

      .cls-3 {
        fill: #ff780a;
      }

      .cls-7 {
        letter-spacing: 0em;
      }

      .cls-6 {
        font-family: Optima-Bold, Optima;
        font-size: 72px;
        font-weight: 700;
      }
    </style>
  </defs>
  <g id="prancheta-2">
    <g id="logo-branco">
      <g>
        <text class="cls-6" transform="translate(223.65 100.65)"><tspan x="0" y="0">Alexandre Sina</tspan><tspan class="cls-4" x="472.17" y="0">c</tspan><tspan class="cls-1" x="506.88" y="0">hi</tspan></text>
        <text class="cls-5" transform="translate(223.65 141.46)"><tspan x="0" y="0">p</tspan><tspan class="cls-7" x="13.46" y="0">r</tspan><tspan x="21.35" y="0">odu</tspan><tspan class="cls-7" x="61.8" y="0">t</tspan><tspan x="69.41" y="0">or multimídia</tspan></text>
      </g>
      <g>
        <g>
          <path class="cls-2" d="M106.37,149.72c-.05,7.13-2.67,13.61-5.36,20.36,2.66-.18,3.88-1.7,5.27-2.86,11.55-9.65,21.88-20.58,32.1-31.59,3.11-3.36,5.77-7.21,8.22-11.11,2.96-4.71,1.83-6.71-3.75-7.3-5.96-.62-11.88.05-17.78.82-22.4,2.92-44.81,5.56-66.27,13.53-14.5,5.38-29.3,10.03-44.61,12.71-1.56.27-3.1.47-4.61.52-6.66.21-11.31-6.86-8.63-13.18,3.54-8.37,9.04-15.54,15.45-22.05,12.82-13.03,26.67-24.93,41-36.23,5.9-4.65,10.69-10.14,14.1-16.67,2.91-5.57,5.04-11.45,7.4-17.45,3.76-9.55,6.05-17.43,7.01-26.68.42-4,.56-7.7,3.22-11.65,1.14-1.18,5.57,0,5.72,0,11.43,1.97,7.62,1.18,12.96,2.76,4.86,1.43,7.31,4.26,9.5,9.1,5.61,12.35,12.83,23.83,21.1,34.52,9.11,11.78,20.91,20.22,35.57,24.41-3.74,1.71-6.72.76-12.44,1.34-11.05-.39-17-.16-24.45-5.06-6.43-4.23-12.63-8.76-17.26-15.11-.69-.94-1.36-.72-3.26-.72-4.79,0-8.63-.49-13.13.29-7.52,1.3-14.24,8.73-15.01,17.62-.25,2.98-1.09,4.3-3.74,5.1-25.67,7.77-45.07,24.92-63.56,43.41-.6.6-1.19,1.25-1.65,1.96-.98,1.51-2.89,2.86-1.75,4.97.96,1.77,2.95,1.43,4.61,1.51,8.23.36,16.28-1.43,24.23-2.94,25.41-4.8,50.69-10.31,76.28-14.04,10.24-1.49,20.76-1.75,30.98.4,13.52,2.85,17.3,13.94,8.81,25-8.42,10.99-19.37,19.24-30.11,27.66-9,7.05-18.02,14.08-28.04,19.69-4.16,2.32-3.95,2.6-10.81,4.96-6.48,1.18-8.29,1.92-12.82.63-3.4-.97-5.12-3.52-4.33-6.54.99-3.77,1.91-3.55,3.04-5,5.82-7.44,10.07-12.43,7.63-21.8M104.28,25.26c-.08-.21-.39-.19-.44.03-1.03,4.29-3.78,7.72-4.5,11.19-.54,2.62-.29,2.66,3.04,3.94,3.11,1.2,6.51.26,9.68,1.7-3.4-5.49-5.25-10.49-7.77-16.85Z"/>
          <path class="cls-3" d="M102.61,27.1c.22.34.45.64.7.88.21,1.76,1.51,2.17,1.99,3.9.62,1.46,1.27,2.41,1.7,3.89.56.02.83.71,1.12,1.49.14.39.29.8.47,1.16.13.26.21.31.47.45.31.32,1,.77.97.38.49.81-.24.38.34,1.04-.21-.15-.42-.29-.62-.42-.03.1-.24.08-.04.3.23.18.48.38.74.6-.04.02-.06.04-.06.08,0,.01.03.06,0,.05l-.1-.04c-.11-.04-.15-.04-.21-.02-.1.03-.29.07-.81-.14.79.39-.04.18.25.49-.28-.17-.86-.32-.74-.4-.38-.1-.68,0-1.02.05-.35.05-.75.05-.99-.21l-.35.13c-.6.18-1.05-.13-1.57-.26l-.1.18c-.36.06-1.01-.07-1.26-.33-.83-.32-2.08-.38-3.08-.57-.41-.31-.57-.32-.78-.3-.19,0-.46.07-.84-.35-.14-.32-.28-.78-.27-1.23-.01-.22.02-.44.05-.63.04-.16.1-.29.18-.37-.06.4.04.71.15.94.11.24.19.45.29.86.02-.18.18.14.45.28.26.15.47.2.32-.07-.36-.11-.61-.46-.64-.85-.04-.39.03-.79.1-1.22.15-.85.39-1.64.46-2.4.43.28.97-1.52,1.21-2.12l.14.02c.3-.46.51-.8.74-1.66.43-.95.78-1.91,1.38-2.62.42-.54.61-1.25.66-1.89.01-.32,0-.63-.03-.88-.04-.07.02-.19.14-.23.12-.04.26.02.34.11-.02-.16-.2-.33-.4-.33-.2-.02-.42.15-.47.34-.07.18-.13.36-.18.54-.1.36-.2.71-.29,1.05-.21.67-.47,1.28-1.09,1.63.56-.92.4-1.07.42-1.91l-.3.34.02-.35c-.23.1-.23-.37-.43-.38-.13.38-.26.75-.41,1.13.39-.55.43-.08.53.18l-.31.57c.14-.1.36-.44.29.04-.14.22-.18.59-.42.8l-.15-.63c-.04.85-1,1.06-1.08,1.93l-.48.04-.32.71-.09-.14-.47.83c-.17.51-.03.66.06.8-.16.38-.26.77-.41.9l-.04-.55-.25.38c.2-.26,0,.42.04.55-.42.96-.28.67-.69,1.26-.03.36-.15.75-.24,1.06-.08.29-.11.49.05.54-.05.16-.11.34-.15.52-.04.23-.09.52-.12.78-.04.54.02,1.08.19,1.58.37,1.03,1.29,1.7,2.21,2.14.22.03.42.04.62.05.59.37,1.02.51,1.47.63.5.13,1.12.25,1.85.38l-.14.07c.29-.03.58-.05.85-.11,1.06.35,1.52-.11,2.64.24.33.05.51.07.84.07.41,0,.75,0,1.02-.03.55-.07.89-.15,1.05-.36.45.04.98.21,1.7.52.68.28,1.53.7,2.13.93-.13,0-.28.01-.44,0l1.41.73c.36.13.62.23.83.3-.29-.61.17-.21-.93-1.7-.87-1.79-1.87-2.12-2.63-2.9-.07-.41-.2-.9-.35-1.47l-.09.04c-.54-.47-.66-.6-.83-.92-.19-.37-.29-.73-.71-1.54l-.21.2c0-.68-.5-.73-.81-1.46-.18-.34-.23-1.61-.82-2.1-.29-1.38-1.31-1.69-1.71-2.81-.08-.74-.72-1.04-.34-1.34l.05.12.33-.42-.32.09c-.04-.45-.38-.98-.18-1.46l-.93-.71c.14.21.21.47.27.74l.08-.06c.1.24.4.8.39,1.13l-.23-.3c.08.41-.19.15-.28.06-.16-.83-.38-.5-.67-1.07-.01-.15-.08-.42.05-.36-.19-.33-.33-1.34-.65-1.24,0-.03,0-.06.02-.09-.49.33-.87.94-1.18,1.64Z"/>
          <path class="cls-3" d="M77.91,175.36c-.26.35-.42.49-.89.94-.48.43-1.06,1.15-1.4,1.79-.36.65-.58,1.27-.78,1.85-.09.29-.18.58-.25.86l-.11.42-.11.51c-.28,1.39-.16,3,.5,4.35.63,1.37,1.7,2.41,2.8,3.1.56.35,1.13.62,1.71.84.29.12.58.19.86.28l.78.2c1.03.25,2.1.43,3.19.49,2.21.12,4.16-.3,5.88-.65,1.16-.21,2.3-.41,3.42-.61l.43-.08c.14-.03.27-.04.39-.09l.29-.1.81-.27c.54-.19,1.08-.38,1.61-.56,1.07-.38,2.13-.78,3.19-1.25,1.07-.47,2.1-1.04,3.01-1.57.91-.52,1.8-1.03,2.69-1.53.91-.51,1.8-1.03,2.67-1.55,1.75-1.04,3.43-2.11,5.05-3.19,6.5-4.32,12.14-8.79,17.76-13.28,5.58-4.51,11.3-8.95,17.28-14.18,2.98-2.62,6.02-5.44,9.04-8.63,1.52-1.58,3-3.29,4.5-5.08.72-.94,1.49-1.79,2.19-2.84.35-.51.73-1.01,1.07-1.55.32-.55.64-1.11.96-1.68,1.02-2.07,1.86-4.24,2.11-6.55.26-2.29.02-4.65-.79-6.79-.78-2.16-2.23-3.98-3.85-5.41-.79-.76-1.71-1.31-2.6-1.89-.45-.27-.93-.48-1.39-.72-.47-.23-.93-.48-1.42-.63-.96-.36-1.92-.73-2.9-.94l-1.46-.37-1.42-.27c-1.9-.35-3.78-.63-5.67-.82-3.77-.41-7.51-.52-11.22-.42-3.71.09-7.4.41-11.09.88-3.69.5-7.33,1.08-11.06,1.66-7.45,1.19-15.12,2.53-23.32,4.02-5.25,1.46-21.15,4.59-38.76,7.93-8.83,1.53-18.02,3.78-26.54,3.85-1.09.02-2.06-.03-3.2-.05-1.09,0-2.04,0-2.51-.3-.24-.13-.41-.31-.56-.6-.16-.31-.21-.55-.19-.79.02-.48.52-1.18,1.14-1.94l.47-.61.41-.61c.23-.34.5-.66.78-.98.56-.62,1.24-1.28,1.84-1.9,1.22-1.25,2.38-2.44,3.46-3.54,5.87-5.83,10.57-10.12,12.54-12.02,2.01-1.85,1.18-1.43-3.6,2.7,8.56-7.6,12.12-9.95,15.18-12.16,1.58-1.03,3-2.09,5.1-3.42,2.09-1.35,4.77-3.12,8.93-5.44-1.84,1.1-3.61,2.31-5.38,3.52,5.37-3.22,11.56-6.34,19.19-9.31,1.41-.64,2.85-1.16,4.3-1.69l2.19-.81c.79-.28,1.6-.67,2.29-1.32.65-.56,1.1-1.33,1.34-2.08.25-.75.36-1.47.44-2.18.09-.67.16-1.29.28-1.92.16-.61.24-1.24.44-1.82.7-2.37,1.79-4.52,3.14-6.38,2.74-3.67,6.53-6.34,10.85-7.05,4.39-.79,9.06-.21,14.13-.36.29,0,.47,0,.7.07.22.07.41.21.55.39.36.45.73.98,1.15,1.49.83,1.05,1.75,2.06,2.71,3.08,1.95,2.02,4.15,3.97,6.61,5.88-1.59-1.26-2.65-2.2-3.32-2.81-.67-.62-.96-.92-.98-.96-.04-.09.98.84,2.41,1.98,2.84,2.32,7.39,5.3,6.72,4.68.77.55,2.09,1.51,3.67,2.5,1.59.97,3.49,1.87,5.2,2.44,1.71.58,3.21.89,3.95,1.03.73.16.71.17-.57-.03,2.65.52,5.29.69,7.88.8,1.29.04,2.58.09,3.85.13.64.02,1.27.04,1.9.05l.95.03c.43-.01.65-.05.98-.08.61-.05,1.23-.09,1.84-.12.73-.02,1.45-.04,2.17-.06,1.49-.02,2.81-.09,4-.24,1.19-.15,2.31-.44,3.46-.87.28-.11.57-.24.85-.36-.13-.09-.37-.18-.55-.26-.4-.17-.79-.34-1.18-.51-1.31-.41-2.6-.85-3.83-1.26-1.17-.46-2.34-.87-3.42-1.33-1.96-.85-3.66-1.67-5.32-2.58-3.28-1.79-6.06-3.73-8.31-5.58-2.04-1.51-4.02-3.11-5.9-4.82-4.81-4.42-8.34-9.15-11.67-13.83-3.31-4.69-6.33-9.42-9.33-14.62l-1-1.35c-2.03-3.42-4.67-8.4-6.93-13.44-1.15-2.51-2.69-4.91-4.7-6.48-1.98-1.6-4.25-2.27-5.86-2.79-.92-.28-1.83-.61-2.83-.85-.99-.22-1.96-.38-2.96-.55-1.98-.34-4-.68-6.04-1.02l-.07.36c-.01-.14-.02-.45-.01-.37h0s0,0,0,0c.01,0,0,0-.02,0l-.1-.02-.21-.04-.43-.09-.87-.16c-.58-.09-1.18-.16-1.78-.19-.3,0-.61,0-.92.02-.31.03-.68.1-.99.21-.67.2-1,.97-1.29,1.44-1.22,2.09-1.89,4.5-2.19,6.9-.3,2.41-.43,4.81-.77,7.21-.32,2.4-.75,4.78-1.27,7.14-1.05,4.72-2.51,9.33-4.12,13.76-1.66,4.42-3.24,8.75-4.9,12.86-2.14,4.95-3.75,8.01-5.03,10.11-1.27,2.1-2.11,3.3-2.91,4.45-.81,1.14-1.6,2.22-3.06,3.89-1.47,1.64-3.66,3.89-7.5,6.89-4.88,3.78-11.38,9.14-17.29,14.27-5.91,5.13-11.21,10.04-14.02,12.53,6.21-5.9,9.8-9.2,13.49-12.58,3.7-3.36,7.54-6.75,14.62-12.39-1.38,1.05-.58.37,1.19-1.09,1.76-1.47,4.59-3.6,6.91-5.87,2.34-2.24,4.22-4.53,4.89-5.45.64-.94.29-.35-2.43,2.59-1.44,1.61-3,3.15-4.68,4.61-1.67,1.46-3.47,2.84-5.24,4.29-3.55,2.88-7.15,5.85-10.75,8.9-7.2,6.1-14.4,12.54-21.25,19.21-3.41,3.35-6.83,6.67-9.91,10.23-3.07,3.56-5.83,7.33-8.07,11.28-1.12,1.98-2.12,3.99-2.98,6.04-.86,2.05-1.06,4.37-.43,6.44.57,2.09,1.87,3.9,3.54,5.13,1.69,1.2,3.74,1.79,5.72,1.66-.6.13,1.62.27,5.4-.42,3.78-.63,9.15-1.72,14.94-3.24,5.8-1.5,12.01-3.42,17.58-5.31,5.57-1.88,10.47-3.79,13.77-4.95l.89-.17c5.7-1.91,10.75-3.31,16.7-4.74,5.95-1.41,12.82-2.82,22.26-4.36,5.65-.88,11.31-1.65,16.9-2.39,5.59-.7,11.11-1.59,16.55-1.88,2.72-.14,5.42-.11,8.07.17,1.31.15,2.63.37,3.76.94.55.3,1.03.72,1.23,1.28.21.55.16,1.19.01,1.78-.35,1.21-1.02,2.31-1.7,3.37-.69,1.07-1.39,2.13-2.1,3.15-1.43,2.06-2.92,4.01-4.5,5.82-6.26,6.72-13.01,13.82-19.68,20.44-3.35,3.3-6.69,6.49-9.98,9.43-1.61,1.46-3.39,2.95-4.62,4.08-.67.61-1.42,1.17-2.28,1.47-.43.15-.87.26-1.33.31h-.08s-.04.02-.04.02v-.04s.07-.15.07-.15l.11-.29.22-.59c.33-.88.65-1.75.96-2.59.16-.44.31-.87.46-1.3.16-.47.31-.92.47-1.38.61-1.83,1.11-3.58,1.48-5.21.76-3.28.97-6.11.92-8.25-.07,3.34-.71,6.62-1.65,9.77-.47,1.58-1,3.13-1.57,4.67-.64,1.73-1.34,3.48-2.04,5.22l-.23,1.01c-.04.06.04.04.1.04l.17-.02c.11-.01.23-.02.34-.04.22-.03.44-.07.66-.12.87-.19,1.66-.55,2.39-1.05.74-.49,1.44-1.14,2.18-1.77.66-.56,1.32-1.12,1.98-1.68,2.54-2.19,5-4.41,7.38-6.66,4.77-4.48,9.24-9.04,13.51-13.5,2.12-2.24,4.21-4.45,6.27-6.61,2.03-2.17,4.11-4.26,5.89-6.54,1.8-2.25,3.42-4.57,4.94-6.86.75-1.14,1.55-2.31,2.02-3.69.22-.69.39-1.47.19-2.31-.2-.84-.84-1.53-1.48-1.91.76.42,1.45,1.27,1.58,2.19.14.9-.06,1.7-.3,2.38-.5,1.37-1.25,2.47-1.88,3.47-1.3,2.02-2.5,3.78-3.65,5.34-1.15,1.56-2.24,2.92-3.31,4.14-1.08,1.23-2.08,2.28-3.05,3.36-3.89,4.23-7.22,8.03-13.69,14.71,2.36-2.27,4.68-4.57,6.98-6.89-1.82,1.94-3.64,3.88-5.5,5.8,3.02-2.76-4.35,4.84-3.38,4.09,3.47-3.39,6.86-6.85,10.19-10.35l4.97-5.27c1.65-1.79,3.29-3.47,4.95-5.39-1.34,1.53-2.43,2.6-3.24,3.47-.84.85-1.44,1.47-1.84,1.88-.82.81-.88.8-.51.34.75-.95,3.18-3.66,4.66-5.47,1.69-1.91,3.23-3.93,4.67-6,.72-1.03,1.42-2.08,2.1-3.14.66-1.04,1.4-2.14,1.96-3.45-.38.92-1.1,2.07-1.75,3.04-.66.99-1.31,1.94-1.71,2.5-.41.56-.56.75-.24.23.33-.54,1.13-1.73,2.56-4.13.41-.68.8-1.42,1.09-2.3.28-.85.53-1.99.02-3.18-.1-.3-.32-.54-.49-.8-.21-.2-.42-.44-.65-.59-.46-.33-.94-.56-1.42-.74-.95-.35-1.89-.51-2.82-.63-3.67-.45-7.39-.37-10.76-.18,1.99-.21,4-.37,6.03-.4,2.05-.02,4.02,0,6.19.35-1.25-.24-2.41-.31-3.55-.39-1.14-.07-2.26-.09-3.37-.1-2.21,0-4.35.12-6.44.29-4.19.36-8.14.89-12.11,1.33-7.94.92-15.91,1.84-24.92,3.53-1.85.18-3.71.37-5.57.59-5.67,1.09-11.32,2.36-16.91,3.89l1.86-.65c-3.36.89-6.72,1.82-10.03,2.91-3.33,1.05-6.6,2.29-9.8,3.43-5.2,1.88-8.19,2.96-10.12,3.66-1.92.7-2.75,1.05-3.67,1.4-8.14,2.57-16.12,4.54-19.51,5.15,3.2-.78,6.39-1.63,9.55-2.55-2.95.76-5.91,1.44-8.88,2.07,3.05-.65,1.21-.17-1.68.48-2.88.64-6.86,1.43-7.87,1.58-2.53.32-4.14.25-5.45-.39-1.31-.59-2.2-1.44-2.81-2.23-1.22-1.63-1.43-2.97-1.55-4.01-.08-1.06.05-1.95.45-3.12.05-.15.11-.3.17-.46.08-.18.17-.38.26-.58.19-.4.38-.85.63-1.33.48-.96,1.05-2.1,1.85-3.44,3.04-5.71,7.72-11.35,11.76-15.45,4.07-4.16,7.18-7.1,7.33-7.49,8.83-8.35,18.36-16.56,28.04-24.35,2.44-1.95,4.88-3.9,7.3-5.83,2.46-2.04,4.77-4.27,6.84-6.67,2.07-2.4,3.92-4.98,5.48-7.68,1.58-2.72,2.83-5.44,4.01-8.16,1.31-3.21,2.47-6.44,3.65-9.64,3.8-9.19,6.27-17.1,7.39-24.69.29-1.89.51-3.79.68-5.62.17-1.82.35-3.53.75-5.12.2-.8.47-1.56.8-2.31.17-.37.34-.74.55-1.1.1-.18.2-.36.31-.54.03-.05.02-.04.05-.07.05-.05.07-.05.18-.07.3-.03.69-.02,1.1,0,.41.03.84.09,1.28.16l.67.12.35.07.19.04.11.02s.13.03.23.04c.11.01.22.02.33.01l-.42-.03c1.51.25,3.06.5,4.65.77.79.13,1.6.27,2.42.4.82.14,1.62.27,2.32.46.81.25,1.64.5,2.48.75.91.27,1.65.49,2.41.79,1.5.63,2.85,1.53,3.98,2.83-.46-.46-.93-.9-1.45-1.25,1.74,1.31,3.04,3.3,4.13,5.53,1.12,2.32,2.31,4.74,3.55,7.05,2.45,4.87,4.77,8.86,7.04,12.46,2.27,3.6,4.47,6.81,6.84,10.03,4.72,6.33,9.82,13.53,20.25,21.07,3.22,2.25,6.37,4.05,9.38,5.48.37.19.75.35,1.12.52.34.15.67.3,1,.45.15.07.33.13.49.2.33.13.66.24,1,.34.22.07.44.13.65.19-.16.09-.33.16-.51.21-.35.1-.72.12-1.09.14-.74.05-1.44.1-2.11.14-.33.03-.65.06-.97.09l-.47.05c-.22.02-.07.02-.26.02-.6,0-1.19-.01-1.76-.02-4.55-.03-8.09,0-11.12-.29-3.15-.4-6.39-1.37-9.37-3.12-1.47-.87-2.97-1.9-4.45-2.91-1.47-1.02-2.92-2.08-4.32-3.19-2.8-2.2-5.37-4.59-7.52-7.11-.55-.64-1.03-1.24-1.56-1.94l-.39-.52c-.13-.17-.24-.33-.47-.58-.41-.45-.98-.73-1.57-.81-.3-.05-.61-.05-.84-.05h-.61c-.38,0-.76.01-1.14.01-.76-.02-1.5-.03-2.23-.04,1.28,0,2.5,0,3.78-.06.3-.01.85-.02,1.33.08.48.1.94.34,1.29.68.4.4.52.62.75.89l.62.78-.76-1.03c-.18-.27-.67-.93-1.24-1.19-.29-.15-.6-.24-.92-.3-.32-.05-.67-.06-.9-.07h-1.23c-1.58-.02-3.2-.11-4.83-.18-2.12-.06-4.05-.07-5.81.07-1.75.12-3.33.38-4.83.81-2.94.91-5.18,2.32-7.2,4.15-2.02,1.83-3.87,4.14-5.38,7.51-.72,1.7-1.33,3.67-1.61,5.97-.06.53-.12,1.07-.19,1.63-.07.5-.17.98-.34,1.38-.16.41-.37.7-.69.97-.31.27-.78.5-1.34.7-7.24,2.14-12.26,4.48-15.87,6.27-.9.46-1.73.89-2.49,1.28-.76.4-1.42.81-2.05,1.17-1.24.74-2.3,1.32-3.18,1.93-1.77,1.19-3.1,2.05-4.58,3.18-.76.55-1.57,1.13-2.51,1.81-.94.7-2.01,1.5-3.3,2.46-7.9,5.53-15.27,11.8-22.33,18.34l.53-.37c-3.01,3.03-5.06,5.16-6.91,7.07-.91.96-1.86,1.81-2.69,2.96-.22.31-.36.55-.56.8-.21.26-.42.53-.63.8-.43.56-.96,1.22-1.17,2.17-.11.48-.07,1.01.08,1.49.15.48.37.93.75,1.35.37.42.88.73,1.42.9.54.17,1.09.23,1.63.25,1.03.02,2.13.05,3.33.08,1.21,0,2.51,0,3.92-.09,2.82-.15,6.05-.55,9.81-1.19,3.76-.65,8.02-1.51,12.99-2.44l-1.86.07c13.41-2.25,19.05-3.88,36.23-7.18,4.2-.81,12.77-2.34,22.16-3.87,4.7-.76,9.59-1.54,14.25-2.23,4.65-.74,9.07-1.19,12.81-1.43,7.65-.22,14.34.37,20.26,1.73,2.93.69,5.63,1.85,7.78,3.6,2.15,1.73,3.69,4.09,4.29,6.69.62,2.6.27,5.34-.61,7.87-.89,2.54-2.38,4.86-4.07,7.07-3.39,4.44-7.48,8.71-12.41,13.09-6,5.18-11.36,9.34-15.41,12.57-4.05,3.22-6.88,5.43-8.22,6.16l2.25-1.75-4.95,3.22-.37.69c-3.84,2.81-8.55,6.2-13.34,9.15-2.39,1.49-4.81,2.81-7.08,4.07-1.13.64-2.2,1.22-3.26,1.66-1.06.44-2.1.8-3.07,1.1l-2.54.98-2.66.58c-1.8.39-3.59.83-5.39.93-1.8.1-3.63-.22-5.36-.77-.85-.3-1.66-.75-2.33-1.37-.65-.63-1.17-1.43-1.38-2.34.29,1.34,1.23,2.51,2.45,3.23,1.21.75,2.66,1.07,4.09,1.34,2.92.57,5.93-.22,8.88-.73l-.62.02c.7-.14,1.53-.3,2.46-.48.89-.32,1.87-.67,2.91-1.05,1.04-.39,2.14-.81,3.23-1.34,1.09-.52,2.16-1.18,3.26-1.81,4.42-2.44,8.77-5.2,11.54-7.03-2.18,1.53-4.39,3-6.65,4.41,7.81-4.82,1.44-.57-.76.78-2,1.14-3.68,2.09-5.12,2.91-1.43.84-2.71,1.43-3.8,1.87-1.09.44-2,.78-2.8,1.08-.4.15-.77.29-1.13.42-.18.07-.36.13-.54.2-.21.07-.4.09-.56.13-1.37.3-2.61.56-4.36.94-.89.17-1.92.37-3.21.44-1.29.07-2.84-.06-4.58-.53-.78-.21-1.79-.56-2.67-1.14-.9-.56-1.64-1.4-2.06-2.21-.42-.81-.51-1.54-.53-1.86,0-.33,0-.28.11.31-.1-.55-.12-1.18-.02-1.84.12-.67.3-1.29.53-1.98.24-.67.54-1.4,1.05-2.07.53-.68,1.19-1.11,1.63-1.7,1.98-2.53,4.24-5.26,5.87-8.07,1.68-2.79,2.41-5.76,2.4-7.98.02-2.22-.38-3.67-.47-3.82-.13-.69-.18-.95-.3-1.57,0,1.36.56,4.39-.53,8.06-.53,1.83-1.56,3.76-3.02,5.76-1.44,2.01-3.3,4.09-5.25,6.38Z"/>
        </g>
        <path class="cls-3" d="M106.19,151.17c-.05,7.13-2.67,13.61-5.36,20.36,2.66-.18,3.88-1.7,5.27-2.86,11.55-9.65,21.88-20.58,32.1-31.59,3.11-3.36,5.77-7.21,8.22-11.11,2.96-4.71,1.83-6.71-3.75-7.3-5.96-.62-11.88.05-17.78.82-22.4,2.92-44.81,5.56-66.27,13.53-14.5,5.38-29.3,10.03-44.61,12.71-1.56.27-3.1.47-4.61.52-6.66.21-11.31-6.86-8.63-13.18,3.54-8.37,9.04-15.54,15.45-22.05,12.82-13.03,26.67-24.93,41-36.23,5.9-4.65,10.69-10.14,14.1-16.67,2.91-5.57,5.04-11.45,7.4-17.45,3.76-9.55,6.05-17.43,7.01-26.68.42-4,.56-7.7,3.22-11.65,1.14-1.18,5.57,0,5.72,0,11.43,1.97,7.62,1.18,12.96,2.76,4.86,1.43,7.31,4.26,9.5,9.1,5.61,12.35,12.83,23.83,21.1,34.52,9.11,11.78,20.91,20.22,35.57,24.41-3.74,1.71-6.72.76-12.44,1.34-11.05-.39-17-.16-24.45-5.06-6.43-4.23-12.63-8.76-17.26-15.11-.69-.94-1.36-.72-3.26-.72-4.79,0-8.63-.49-13.13.29-7.52,1.3-14.24,8.73-15.01,17.62-.25,2.98-1.09,4.3-3.74,5.1-25.67,7.77-45.07,24.92-63.56,43.41-.6.6-1.19,1.25-1.65,1.96-.98,1.51-2.89,2.86-1.75,4.97.96,1.77,2.95,1.43,4.61,1.51,8.23.36,16.28-1.43,24.23-2.94,25.41-4.8,50.69-10.31,76.28-14.04,10.24-1.49,20.76-1.75,30.98.4,13.52,2.85,17.3,13.94,8.81,25-8.42,10.99-19.37,19.24-30.11,27.66-9,7.05-18.02,14.08-28.04,19.69-4.16,2.32-3.95,2.6-10.81,4.96-6.48,1.18-8.29,1.92-12.82.63-3.4-.97-5.12-3.52-4.33-6.54.99-3.77,1.91-3.55,3.04-5,5.82-7.44,10.07-12.43,7.63-21.8M104.1,26.71c-.08-.21-.39-.19-.44.03-1.03,4.29-3.78,7.72-4.5,11.19-.54,2.62-.29,2.66,3.04,3.94,3.11,1.2,6.51.26,9.68,1.7-3.4-5.49-5.25-10.49-7.77-16.85Z"/>
        <path class="cls-3" d="M135.91,50.82c5.73,3.66,12.64,8.42,18.78,11.63,7.39,3.81,15.31,8.09,22.76,11.65-.09.19-.84.16-.26.55,2.36,1.46,2.2,1.81,2.03,2.19-.09.19-1.89-.87-1.34-.4-1.89-.88-5.05-2.33-3.27-1.22.53.5,3.13,1.51,3.64,2.07.5.57-.89.26-.39.84.64.29,1.92.86,2.56,1.15.56.47-.89.28-.25.56.93.52,2.06,1.03,3.31,1.52,1.27.48,2.59.96,4.17,1.3-.02.1.13.24.11.32,0,.04-.06.08-.19.09-.15,0-.43-.02-.82-.1-1.67-.44-3.13-1-4.6-1.58-1.46-.58-2.89-1.2-4.31-1.83-2.84-1.27-5.64-2.61-8.42-3.99-5.56-2.77-11.04-5.7-16.45-8.77-5.41-3.08-10.75-6.28-15.93-9.75-2.59-1.74-5.15-3.53-7.63-5.49-1.24-.98-2.47-2-3.66-3.11-.6-.56-1.19-1.14-1.76-1.79-.58-.65-1.15-1.33-1.68-2.25-.24-.42-.4-.85-.5-1.18-.1-.37-.13-.65-.14-.81.01-.09.04-.12.08-.1.04.01.08.07.17.28.33.85,1.19,1.96,2.05,2.74-.57-.57-.33-.73-.86-1.4.13-.07.52.21,1.13.7.61.5,1.44,1.2,2.51,2.13-.52-.48-1.02-.99-1.5-1.53-.39-.61.23-.2.38-.34.47.52.97,1.01,1.04.94.07-.07.22-.22.29-.29-.5-.47-1.42-1.48-1.8-2.04.4.54.85,1.05.93.98.08-.07.23-.2.31-.27.95.92,2.33,2.44,3.46,3.23l.2-.24c-.99-.94-2.57-2.23-3.43-3.2.52.41.59.34.74.2,1.42,1.32,2.8,2.87,4.6,3.89-.54-.42-1.07-.84-1.59-1.27,1.34.48,3.8,2.86,5.56,3.96Z"/>
        <path class="cls-3" d="M83.76,171.54c.93-1.72,2.12-3.5,2.91-5.47.91-1.92,1.35-4,1.45-5.87-.02-2.26-.35-4.52-.96-6.72-.44-1.07-.72-2.18-1.3-3.19-.27-.51-.48-1.04-.79-1.53-.31-.48-.62-.96-.93-1.44.19-.13.68,0,.56-.38-.26-.76-.37-1.18-.32-1.46.04-.28.22-.42.4-.56.19-.14.76.96.7.5.66,1.03,1.88,2.71,1.4,1.55-.05-.46-1.09-1.77-1.11-2.27,0-.54.82-.07.82-.61-.27-.34-.82-1.01-1.09-1.35-.1-.49.8-.09.52-.44-.17-.29-.37-.6-.59-.91-.23-.3-.52-.58-.81-.88-.59-.58-1.22-1.21-1.84-1.83.16-.15,0-.65.7-.1,2.88,2.62,5.46,5.78,7.31,9.47,1.85,3.68,2.79,7.97,2.48,12.2-.28,4.23-1.74,8.28-3.83,11.76-2.1,3.5-4.8,6.49-7.76,9.02-1.39,1.13-.69-.13.04-1.27-.24.38-.47.13-.72.51-.23-.26.04-1.26,1.19-2.52-.29.31-.62.59-.93.88-.39.21-.23-.25-.39-.41.31-.29.62-.58.54-.66-.08-.08-.24-.24-.32-.32-.3.28-.91.85-1.22,1.13.3-.28.61-.57.53-.65-.08-.08-.23-.25-.31-.33.55-.62,1.53-1.37,2.01-2.05l-.25-.23c-.63.52-1.37,1.5-1.99,2.03.22-.36.14-.44-.02-.6.8-.9,1.83-1.59,2.4-2.7-.26.3-.54.59-.81.88.16-.93,1.7-2.2,2.35-3.21Z"/>
      </g>
    </g>
  </g>
</svg>