<?xml version="1.0" encoding="UTF-8"?>
<svg id="Camada_2" data-name="Camada 2" xmlns="http://www.w3.org/2000/svg" viewBox="0 0 1540.18 371.92">
  <defs>
    <style>
      .cls-1 {
        letter-spacing: 0em;
      }

      .cls-2 {
        fill: none;
      }

      .cls-2, .cls-3 {
        stroke-width: 0px;
      }

      .cls-4 {
        letter-spacing: -.02em;
      }

      .cls-5 {
        font-family: Roboto-Regular, Roboto;
        font-size: 46.73px;
      }

      .cls-5, .cls-6 {
        fill: #191a13;
        stroke: #1d1d1b;
        stroke-miterlimit: 10;
        stroke-width: 1.95px;
      }

      .cls-7 {
        letter-spacing: 0em;
      }

      .cls-3 {
        fill: #ff780a;
      }

      .cls-6 {
        font-family: Optima-Bold, Optima;
        font-size: 140.18px;
        font-weight: 700;
      }

      .cls-8 {
        letter-spacing: 0em;
      }
    </style>
  </defs>
  <g id="prancheta-2">
    <g id="logo-branco">
      <g>
        <text class="cls-6" transform="translate(435.44 195.97)"><tspan x="0" y="0">Alexandre Sina</tspan><tspan class="cls-4" x="919.29" y="0">c</tspan><tspan class="cls-7" x="986.86" y="0">hi</tspan></text>
        <text class="cls-5" transform="translate(435.44 275.42)"><tspan x="0" y="0">p</tspan><tspan class="cls-8" x="26.22" y="0">r</tspan><tspan class="cls-1" x="41.57" y="0">odu</tspan><tspan class="cls-8" x="120.33" y="0">t</tspan><tspan class="cls-1" x="135.14" y="0">or multimídia</tspan></text>
      </g>
      <g>
        <g>
          <path class="cls-2" d="M207.1,291.5c-.1,13.89-5.21,26.49-10.43,39.65,5.18-.36,7.56-3.31,10.25-5.56,22.48-18.79,42.59-40.06,62.5-61.5,6.06-6.53,11.24-14.04,16-21.63,5.76-9.17,3.57-13.07-7.31-14.2-11.6-1.21-23.12.1-34.62,1.6-43.62,5.69-87.23,10.83-129.02,26.33-28.23,10.47-57.05,19.53-86.85,24.75-3.03.53-6.03.91-8.97,1.01-12.98.4-22.01-13.36-16.81-25.66,6.9-16.3,17.61-30.26,30.07-42.93,24.96-25.38,51.93-48.54,79.83-70.54,11.49-9.06,20.82-19.74,27.46-32.46,5.66-10.85,9.81-22.3,14.41-33.97,7.32-18.59,11.77-33.94,13.65-51.94.81-7.79,1.08-15,6.28-22.67,2.23-2.3,10.84.01,11.13,0,22.26,3.84,14.84,2.3,25.23,5.37,9.45,2.79,14.23,8.3,18.5,17.71,10.92,24.04,24.97,46.39,41.08,67.21,17.74,22.94,40.71,39.36,69.26,47.52-7.29,3.33-13.09,1.47-24.22,2.6-21.52-.77-33.09-.32-47.61-9.86-12.53-8.23-24.59-17.05-33.6-29.41-1.34-1.84-2.64-1.4-6.35-1.4-9.32,0-16.8-.96-25.57.56-14.64,2.53-27.73,16.99-29.21,34.3-.5,5.79-2.13,8.37-7.27,9.93-49.99,15.12-87.75,48.52-123.74,84.52-1.17,1.17-2.31,2.43-3.21,3.82-1.91,2.94-5.63,5.57-3.41,9.67,1.87,3.44,5.73,2.79,8.98,2.93,16.02.7,31.69-2.79,47.18-5.72,49.47-9.35,98.7-20.08,148.52-27.34,19.94-2.91,40.41-3.41,60.32.78,26.32,5.54,33.68,27.13,17.16,48.68-16.4,21.39-37.72,37.47-58.63,53.85-17.51,13.72-35.08,27.42-54.59,38.33-8.09,4.53-7.69,5.05-21.04,9.66-12.61,2.3-16.14,3.73-24.95,1.23-6.62-1.88-9.98-6.85-8.44-12.74,1.92-7.34,3.71-6.91,5.92-9.73,11.34-14.48,19.6-24.2,14.85-42.45M203.03,49.18c-.17-.42-.75-.38-.85.06-2,8.35-7.37,15.04-8.77,21.78-1.06,5.09-.57,5.18,5.91,7.67,6.05,2.33,12.67.5,18.84,3.3-6.62-10.69-10.22-20.43-15.13-32.81Z"/>
          <path class="cls-3" d="M199.77,52.76c.42.66.87,1.25,1.37,1.72.41,3.42,2.95,4.23,3.87,7.59,1.2,2.85,2.47,4.69,3.31,7.58,1.09.04,1.61,1.38,2.17,2.9.27.76.57,1.56.91,2.26.11.22.12.24.18.32.05.07.11.13.18.2.14.13.31.24.56.36.31.34.78.67,1.19.88.41.21.74.26.7-.14.96,1.58-.46.74.66,2.03-.42-.3-.82-.57-1.21-.81-.06.2-.47.16-.08.58.46.35.94.75,1.44,1.17-.08.03-.12.08-.11.15-.02.02.06.11,0,.09l-.19-.08c-.22-.08-.3-.08-.41-.04-.2.07-.57.14-1.58-.27.74.37.77.47.62.53-.14.07-.44.11-.14.42-.55-.34-1.68-.62-1.43-.78-.75-.19-1.31,0-1.99.1-.3.05-.73.07-1.05.02-.33-.05-.63-.17-.88-.43l-.69.26c-1.18.34-2.05-.25-3.05-.51l-.19.35c-.71.12-1.97-.15-2.45-.64-.84-.3-1.78-.49-2.87-.66-1.06-.17-2.15-.24-3.13-.45-.81-.59-1.11-.62-1.52-.58-.37,0-.9.14-1.63-.69-.28-.63-.54-1.52-.53-2.4-.03-.44.05-.86.11-1.22.08-.31.19-.56.35-.71-.11.78.08,1.38.3,1.83.22.46.37.87.56,1.67.02-.18.11-.12.25.03.16.14.37.37.62.51.51.29.92.39.62-.14-.34-.12-.64-.33-.87-.62-.21-.29-.34-.65-.38-1.03-.09-.75.06-1.54.2-2.37.3-1.65.76-3.2.89-4.67.44.28.88-.47,1.31-1.42.42-.95.83-2.12,1.04-2.71l.28.05c.59-.89,1-1.56,1.44-3.23.83-1.85,1.51-3.72,2.68-5.1.82-1.04,1.19-2.43,1.29-3.67.03-.63,0-1.23-.07-1.71-.07-.14.03-.38.27-.44.23-.08.51.05.66.22-.05-.31-.39-.63-.78-.63-.39-.03-.81.29-.91.67-.15.36-.26.7-.36,1.05-.19.7-.38,1.38-.56,2.04-.41,1.3-.92,2.49-2.13,3.18,1.08-1.79.78-2.09.82-3.72l-.59.66.03-.69c-.44.2-.45-.71-.83-.73-.25.73-.5,1.46-.81,2.19.77-1.06.83-.15,1.04.35-.2.37-.39.74-.6,1.1.28-.2.71-.86.56.07-.27.44-.34,1.15-.82,1.56-.09-.41-.18-.83-.29-1.23-.07,1.66-1.94,2.07-2.1,3.76l-.93.08-.62,1.39-.17-.28-.92,1.62c-.33.99-.06,1.29.12,1.57-.3.75-.52,1.49-.8,1.74l-.07-1.06c-.16.25-.33.48-.49.75.38-.5,0,.81.09,1.08-.82,1.87-.55,1.31-1.34,2.46-.07.69-.3,1.46-.47,2.06-.15.56-.2.96.1,1.05-.1.31-.21.67-.3,1.01-.08.44-.18,1.02-.23,1.53-.08,1.05.03,2.11.38,3.08.71,2,2.5,3.31,4.31,4.17.43.05.82.08,1.2.1,1.15.72,1.98,1,2.86,1.23.43.11,1.06.25,1.64.38.59.09,1.24.24,1.97.35l-.27.14c.57-.06,1.13-.11,1.66-.21,2.06.68,2.95-.22,5.14.48.29.05.58.09.82.11.13,0,.25.01.36.02.15,0,.3,0,.44,0,.79,0,1.46.02,1.99-.06.53-.09.98-.13,1.32-.24.34-.11.57-.27.73-.46.88.07,1.9.41,3.31,1.01,1.32.55,2.97,1.36,4.15,1.82-.25.02-.54.02-.86,0l2.75,1.42c.65.22,1.19.42,1.62.59-.06-.14-.11-.28-.16-.4-.03-.1-.03-.14-.05-.21-.03-.12-.05-.25-.1-.4-.03-.08-.06-.16-.09-.25-.03-.06-.02-.07-.09-.17-.06-.1-.13-.2-.2-.3-.29-.42-.65-.94-1.11-1.57-.81-1.68-1.78-2.81-2.65-3.57-.88-.77-1.74-1.31-2.48-2.08-.13-.8-.39-1.76-.68-2.85l-.17.07c-1.05-.92-1.29-1.16-1.62-1.8-.37-.71-.57-1.42-1.38-2.99l-.42.38c.02-1.33-.97-1.42-1.58-2.83-.35-.67-.45-3.14-1.6-4.08-.57-2.69-2.54-3.28-3.33-5.48-.15-1.44-1.4-2.02-.66-2.6l.1.23.64-.81-.62.18c-.09-.87-.74-1.91-.35-2.83l-1.8-1.39c.28.4.41.92.53,1.44l.15-.12c.2.46.79,1.56.77,2.2l-.45-.58c.16.81-.37.29-.55.12-.32-1.62-.73-.98-1.31-2.08-.03-.29-.16-.81.09-.7-.38-.63-.65-2.6-1.26-2.42,0-.07.02-.1.03-.17-.96.64-1.7,1.82-2.3,3.19Z"/>
          <path class="cls-3" d="M151.69,341.41l-.36.45c-.12.13-.21.25-.35.38-.24.25-.6.58-1.03,1-.44.41-.99.99-1.47,1.59-.49.61-.91,1.27-1.26,1.9-.7,1.27-1.14,2.46-1.52,3.61-.17.56-.36,1.13-.49,1.68l-.22.82c-.07.3-.15.67-.21,1-.27,1.36-.36,2.81-.19,4.26.14,1.45.54,2.9,1.17,4.21.61,1.32,1.44,2.52,2.39,3.51.93,1.02,1.99,1.84,3.07,2.52,1.08.68,2.2,1.21,3.32,1.63.56.23,1.12.37,1.68.55.54.16,1.01.26,1.51.39,2,.48,4.09.84,6.2.96,2.12.12,4.2-.03,6.09-.29,1.9-.27,3.66-.62,5.35-.97,2.26-.4,4.48-.8,6.66-1.19l.85-.15c.26-.06.52-.07.76-.17l.56-.19c.53-.18,1.05-.36,1.58-.53,1.05-.37,2.1-.73,3.13-1.09,2.08-.74,4.14-1.52,6.21-2.44,2.08-.91,4.1-2.03,5.86-3.06,1.77-1.01,3.51-2,5.23-2.98,1.77-1,3.51-2,5.2-3.03,3.4-2.03,6.67-4.11,9.83-6.22,12.66-8.41,23.64-17.11,34.58-25.86,10.87-8.79,22-17.43,33.64-27.61,5.81-5.09,11.73-10.58,17.6-16.81,2.97-3.08,5.85-6.41,8.77-9.89.71-.89,1.42-1.78,2.14-2.69.36-.45.72-.91,1.08-1.36.36-.48.71-.97,1.07-1.45,1.41-1.97,2.76-4.04,3.92-6.3,1.03-2,1.94-4.06,2.63-6.2.7-2.13,1.24-4.32,1.49-6.56.27-2.23.3-4.49.07-6.73-.26-2.23-.8-4.43-1.6-6.5-1.58-4.18-4.32-7.76-7.48-10.56-3.21-2.78-6.83-4.84-10.55-6.3-1.85-.77-3.75-1.34-5.64-1.86-.95-.25-1.9-.45-2.85-.67-.93-.18-1.85-.36-2.77-.53-3.69-.68-7.37-1.23-11.04-1.6-3.67-.4-7.32-.65-10.96-.77-3.64-.15-7.27-.14-10.88-.05-7.23.18-14.41.8-21.59,1.72-7.18.98-14.26,2.1-21.53,3.24-14.51,2.31-29.45,4.93-45.41,7.82-5.1,1.45-15.4,3.65-28.71,6.34-13.3,2.69-29.61,5.88-46.76,9.1-4.29.8-8.63,1.6-12.99,2.42-4.37.82-8.73,1.65-13.07,2.4-8.68,1.5-17.32,2.63-25.6,2.7-1.03,0-2.07.03-3.09-.02-1.06-.03-2.11-.05-3.15-.08-1.08,0-2.05,0-2.89-.07-.85-.07-1.54-.24-2-.5-.47-.25-.8-.59-1.1-1.16-.32-.6-.42-1.07-.37-1.53.04-.93,1.01-2.29,2.21-3.76.3-.38.6-.77.91-1.19.15-.2.31-.44.46-.66l.35-.52c.45-.66.97-1.29,1.52-1.91,1.09-1.22,2.41-2.49,3.58-3.71,2.38-2.44,4.63-4.75,6.73-6.9,11.43-11.34,20.58-19.71,24.42-23.4,3.91-3.6,2.3-2.78-7.01,5.25,2.09-1.84,4.01-3.54,5.79-5.11,1.78-1.57,3.48-2.94,5.01-4.24,3.06-2.61,5.72-4.65,7.99-6.43,2.26-1.8,4.22-3.22,5.96-4.48,1.75-1.26,3.27-2.39,4.79-3.43,1.52-1.03,2.99-2.03,4.59-3.11.79-.54,1.62-1.11,2.49-1.71.89-.57,1.84-1.18,2.85-1.84,1.02-.66,2.1-1.37,3.29-2.14.59-.39,1.21-.79,1.85-1.21.65-.4,1.34-.81,2.05-1.24,1.42-.87,2.96-1.8,4.64-2.83,1.66-1.06,3.56-2.02,5.57-3.18-1.76,1.12-3.57,2.16-5.29,3.34l-5.18,3.51c10.46-6.26,22.51-12.35,37.36-18.13,1.39-.57,2.74-1.23,4.15-1.73l4.22-1.57,4.26-1.58c1.53-.55,3.12-1.3,4.45-2.56,1.26-1.09,2.15-2.59,2.62-4.03.49-1.45.71-2.87.86-4.24.18-1.32.32-2.51.54-3.73.13-.6.27-1.2.4-1.79l.2-.89.27-.87c1.36-4.62,3.47-8.79,6.11-12.41,2.65-3.61,5.85-6.65,9.41-9.02,3.57-2.37,7.5-4.06,11.71-4.72,4.28-.74,8.68-.89,13.26-.83,4.56.06,9.35.28,14.26.11.28,0,.51,0,.72.02.22.01.44.05.65.11.43.12.8.4,1.07.76.36.47.72.94,1.08,1.41.37.49.74.98,1.16,1.49,1.62,2.04,3.4,4.01,5.28,6,1.9,1.96,3.92,3.89,6.06,5.81,2.15,1.9,4.42,3.78,6.81,5.65-3.1-2.45-5.15-4.28-6.47-5.48-1.3-1.21-1.87-1.79-1.91-1.87-.08-.18,1.92,1.63,4.7,3.85,5.52,4.52,14.39,10.32,13.09,9.11,1.49,1.07,4.06,2.94,7.15,4.87,3.1,1.9,6.79,3.65,10.13,4.76,3.34,1.12,6.25,1.73,7.68,2.02,1.43.3,1.38.34-1.12-.06,5.15,1.01,10.31,1.35,15.35,1.57,2.52.11,5.03.18,7.5.25,1.24.03,2.47.07,3.7.1l1.85.05c.19.01.36,0,.57-.03l.45-.04.9-.09c1.2-.1,2.39-.18,3.58-.23l.45-.02.55-.02,1.09-.03c.72-.01,1.44-.03,2.16-.04,2.89-.03,5.48-.17,7.79-.47,2.32-.3,4.51-.85,6.73-1.7.55-.21,1.11-.47,1.66-.69.06-.02.02-.03,0-.04l-.07-.03-.14-.06-.28-.13-.57-.25c-.77-.34-1.54-.67-2.3-1-2.54-.8-5.07-1.65-7.45-2.46-2.28-.89-4.56-1.69-6.66-2.59-.94-.42-1.86-.83-2.78-1.23-.89-.38-1.76-.79-2.61-1.23-1.7-.86-3.39-1.64-4.96-2.56-6.38-3.49-11.79-7.25-16.18-10.86-3.97-2.93-7.82-6.05-11.48-9.39-4.66-4.31-8.75-8.76-12.45-13.27-3.69-4.52-7.03-9.1-10.26-13.65-6.45-9.13-12.33-18.33-18.17-28.47-.65-.87-1.31-1.74-1.94-2.62-1.97-3.33-4.24-7.42-6.59-11.9-2.33-4.49-4.67-9.37-6.91-14.26-1.15-2.45-2.42-4.83-3.94-7-1.52-2.16-3.29-4.08-5.21-5.62-1.93-1.54-4-2.66-5.97-3.51-1.98-.86-3.87-1.37-5.44-1.92-1.79-.54-3.56-1.19-5.51-1.65-1.92-.44-3.83-.74-5.76-1.08-3.86-.65-7.79-1.32-11.77-2l-.13.71c-.02-.26-.03-.89-.03-.73h0s.01,0,.01,0c.02,0,0,0-.05,0l-.2-.04-.41-.09-.83-.17c-.56-.11-1.12-.21-1.69-.3-1.14-.18-2.29-.32-3.47-.36-.59-.01-1.19,0-1.8.04-.29.03-.64.09-.97.14-.32.08-.65.17-.96.28-.29.16-.62.25-.87.48-.13.1-.27.2-.38.31-.1.13-.19.27-.28.41l-.53.84c-.16.25-.31.5-.45.76-1.17,2.04-2.12,4.22-2.82,6.49-.71,2.26-1.14,4.6-1.45,6.94-.32,2.34-.5,4.69-.72,7.03-.22,2.34-.48,4.67-.79,7-.61,4.66-1.45,9.31-2.47,13.91-2.04,9.19-4.88,18.16-8.02,26.79-1.57,4.32-3.21,8.55-4.77,12.74-1.57,4.18-3.14,8.3-4.77,12.29-4.16,9.63-7.29,15.6-9.79,19.69-2.48,4.1-4.12,6.43-5.67,8.67-1.57,2.23-3.12,4.33-5.97,7.57-2.86,3.2-7.12,7.57-14.61,13.41-9.49,7.35-22.16,17.8-33.66,27.79-11.51,9.98-21.82,19.54-27.29,24.39,12.09-11.48,19.08-17.92,26.26-24.49,7.21-6.54,14.68-13.15,28.47-24.11-2.68,2.04-1.13.71,2.31-2.13,3.43-2.86,8.93-7.01,13.44-11.43,2.27-2.19,4.33-4.39,5.98-6.27,1.64-1.89,2.87-3.45,3.53-4.34.65-.89.76-1.1.08-.32-.67.78-2.14,2.53-4.81,5.37-2.81,3.12-5.84,6.14-9.11,8.98-3.26,2.84-6.76,5.53-10.2,8.35-6.91,5.61-13.92,11.39-20.92,17.34-14.01,11.88-28.03,24.42-41.38,37.39-3.34,3.24-6.64,6.51-9.88,9.8-3.26,3.28-6.41,6.65-9.4,10.11-5.99,6.93-11.34,14.27-15.72,21.96-2.19,3.85-4.13,7.78-5.8,11.76-.78,2.02-1.42,4.11-1.5,6.25-.14,1.06,0,2.13.03,3.19.06.53.17,1.04.26,1.56l.14.78.23.76c.51,2.05,1.52,3.91,2.63,5.63,1.18,1.7,2.64,3.15,4.25,4.37,3.29,2.34,7.29,3.49,11.14,3.24-1.17.25,3.15.53,10.51-.82,7.35-1.22,17.81-3.34,29.09-6.31,11.29-2.92,23.39-6.66,34.22-10.34,5.41-1.85,10.53-3.66,15.07-5.33,2.27-.84,4.4-1.63,6.37-2.36,1.97-.71,3.77-1.36,5.38-1.94l1.73-.33c11.1-3.72,20.93-6.44,32.51-9.22,11.59-2.75,24.96-5.48,43.34-8.49,11.01-1.71,22.01-3.22,32.9-4.66,5.44-.71,10.85-1.42,16.22-2.12,5.37-.68,10.7-1.27,16-1.54,5.3-.27,10.56-.21,15.7.33,2.55.28,5.13.72,7.33,1.83,1.07.58,2,1.4,2.4,2.48.42,1.08.31,2.31.03,3.47-.68,2.35-1.98,4.49-3.31,6.57-1.34,2.09-2.71,4.14-4.1,6.14-2.78,4-5.68,7.81-8.76,11.32-1.46,1.68-3,3.3-4.57,4.95-1.56,1.65-3.14,3.31-4.72,4.97-3.17,3.33-6.36,6.68-9.57,10.04-6.43,6.7-12.94,13.4-19.46,19.83-6.52,6.43-13.03,12.63-19.44,18.36-3.13,2.85-6.6,5.74-8.99,7.94-1.3,1.19-2.76,2.27-4.45,2.86-.83.3-1.7.51-2.58.6l-.16.02s-.06,0-.08,0l.03-.07.11-.29.22-.57c.15-.38.29-.77.43-1.15.64-1.72,1.26-3.4,1.87-5.04.3-.85.6-1.7.9-2.53.3-.86.62-1.8.91-2.68,1.18-3.56,2.16-6.96,2.89-10.15,1.48-6.38,1.88-11.9,1.8-16.06-.13,6.5-1.38,12.89-3.2,19.03-.91,3.08-1.95,6.1-3.06,9.09-1.25,3.36-2.61,6.78-3.96,10.17l-.46,1.96c-.07.12.08.08.19.07l.33-.03c.22-.02.44-.04.66-.08.43-.06.86-.13,1.28-.24,1.68-.36,3.22-1.07,4.66-2.04,1.43-.95,2.8-2.23,4.24-3.45,1.29-1.09,2.57-2.18,3.85-3.27,4.94-4.26,9.73-8.59,14.37-12.96,9.29-8.73,17.99-17.6,26.31-26.28,4.14-4.36,8.2-8.66,12.2-12.87,1.99-2.11,3.96-4.21,5.91-6.28,1.96-2.1,3.81-4.25,5.56-6.44,3.51-4.38,6.65-8.89,9.62-13.35,1.47-2.21,3.01-4.49,3.92-7.18.43-1.34.76-2.86.36-4.49-.39-1.63-1.63-2.99-2.89-3.72.36.26.74.46,1.07.77.32.33.68.59.94.99.25.39.56.75.7,1.2.17.43.34.86.38,1.3.28,1.76-.11,3.32-.59,4.64-.97,2.67-2.43,4.8-3.66,6.75-2.53,3.94-4.87,7.36-7.11,10.4-2.23,3.04-4.36,5.68-6.43,8.06-2.1,2.39-4.05,4.45-5.93,6.54-3.77,4.13-7.32,8.01-11.45,12.53-4.15,4.5-8.89,9.62-15.21,16.11,4.59-4.42,9.11-8.9,13.59-13.42-3.54,3.79-7.09,7.56-10.7,11.29,2.92-2.7.82-.33-1.79,2.51-2.61,2.85-5.77,6.15-4.79,5.45,6.76-6.59,13.35-13.34,19.85-20.16l9.69-10.27,4.81-5.16,2.41-2.6c.82-.9,1.63-1.81,2.41-2.73-1.27,1.46-2.5,2.79-3.54,3.87-1.05,1.09-1.97,2.05-2.78,2.9-1.62,1.68-2.79,2.87-3.59,3.66-1.6,1.58-1.71,1.57-.99.66.72-.91,2.27-2.71,4-4.71,1.72-2,3.64-4.16,5.08-5.95,3.29-3.72,6.29-7.65,9.1-11.68,1.41-2.01,2.77-4.05,4.09-6.11,1.29-2.02,2.73-4.16,3.81-6.72-.38.9-.91,1.89-1.5,2.92-.31.5-.62,1.01-.95,1.53-.32.49-.64.98-.96,1.46-1.28,1.94-2.54,3.78-3.34,4.88-.79,1.1-1.1,1.46-.46.44.32-.51.87-1.37,1.69-2.67.41-.65.88-1.41,1.43-2.29.55-.89,1.16-1.85,1.86-3.08.79-1.32,1.55-2.77,2.13-4.49.29-.85.52-1.79.59-2.84.02-.53.06-1.06-.07-1.65-.05-.29-.08-.57-.17-.86-.1-.28-.21-.57-.32-.85-.1-.29-.26-.55-.43-.8-.17-.25-.34-.51-.52-.75-.41-.39-.82-.86-1.27-1.15-.9-.65-1.83-1.1-2.76-1.43-1.85-.69-3.68-1-5.49-1.24-7.15-.88-14.39-.71-20.94-.35,3.88-.41,7.79-.72,11.74-.77,1.97-.04,3.95,0,5.94.08,1.97.11,4,.24,6.11.61-2.44-.47-4.7-.61-6.91-.76-2.22-.14-4.4-.18-6.55-.19-4.31,0-8.48.24-12.55.57-8.15.7-15.85,1.72-23.58,2.58-15.46,1.8-30.97,3.59-48.51,6.88-3.61.36-7.23.71-10.84,1.15-11.04,2.12-22.04,4.59-32.93,7.58l3.62-1.27c-3.27.9-6.55,1.7-9.8,2.69l-4.88,1.43-4.85,1.54c-3.24,1-6.44,2.15-9.64,3.28l-9.44,3.39c-10.14,3.66-15.97,5.77-19.71,7.12-3.73,1.36-5.36,2.04-7.14,2.73-7.93,2.48-15.77,4.72-22.46,6.45-6.69,1.72-12.22,2.98-15.53,3.58,6.23-1.51,12.43-3.16,18.59-4.97-5.74,1.47-11.5,2.81-17.29,4.04,5.94-1.26,2.36-.33-3.26.94-5.61,1.25-13.35,2.79-15.32,3.08-1.18.15-2.3.25-3.37.32-.53.03-1.07.06-1.55.06-.44-.02-.86-.04-1.28-.06-.42.01-.82-.07-1.21-.14-.39-.08-.78-.12-1.15-.21-.36-.12-.71-.23-1.06-.35-.17-.05-.35-.11-.52-.16-.16-.07-.32-.15-.48-.23-2.55-1.14-4.28-2.8-5.48-4.35-.28-.41-.61-.75-.81-1.15-.22-.39-.43-.76-.64-1.12-.2-.35-.32-.73-.47-1.07-.13-.35-.32-.66-.39-1-.42-1.31-.6-2.43-.7-3.46-.02-.52-.03-1.01-.05-1.5.05-.49.09-.97.14-1.46,0-.5.19-.98.29-1.5.06-.26.12-.53.18-.8.1-.27.21-.54.32-.82.1-.29.21-.58.33-.89.14-.34.34-.73.51-1.12.38-.79.74-1.66,1.23-2.59.93-1.87,2.05-4.08,3.6-6.71,2.98-5.54,6.72-11.1,10.72-16.22,4.01-5.13,8.26-9.84,12.18-13.86,7.92-8.09,13.98-13.83,14.27-14.58,17.2-16.26,35.75-32.23,54.59-47.4,4.76-3.8,9.5-7.59,14.22-11.35,4.79-3.98,9.28-8.31,13.31-12.99,4.03-4.68,7.63-9.69,10.67-14.95.77-1.3,1.48-2.65,2.2-3.97.68-1.32,1.35-2.64,1.99-3.96,1.28-2.65,2.48-5.3,3.62-7.94,2.55-6.26,4.82-12.55,7.1-18.77,3.64-8.93,6.78-17.28,9.15-25.2,2.4-7.93,4.11-15.48,5.23-22.86.57-3.67,1-7.37,1.32-10.94.33-3.55.67-6.88,1.47-9.97.39-1.55.91-3.04,1.55-4.49.33-.72.66-1.44,1.07-2.14.2-.35.38-.71.61-1.04.05-.09.02-.04.04-.07.01-.02.02-.06.05-.06.1-.09.14-.11.36-.14.59-.05,1.35-.04,2.13.02.8.06,1.64.18,2.5.32l1.31.24.68.14.37.08.21.04s.25.05.45.07c.21.02.43.03.64.03l-.81-.05c2.94.49,5.95.98,9.06,1.5,1.55.26,3.12.52,4.71.78,1.59.27,3.16.53,4.51.9,1.41.4,3.15.97,4.82,1.46,1.78.52,3.21.95,4.7,1.55,2.91,1.22,5.54,2.97,7.75,5.52-.89-.89-1.8-1.75-2.82-2.44,3.39,2.55,5.92,6.44,8.04,10.77,2.19,4.53,4.49,9.22,6.91,13.72,4.77,9.47,9.29,17.26,13.71,24.26,4.42,7.01,8.71,13.26,13.31,19.54,2.3,3.14,4.66,6.3,7.19,9.54,1.23,1.63,2.61,3.28,3.97,4.97,1.38,1.69,2.87,3.36,4.39,5.1,6.21,6.83,13.73,14.11,23.89,21.4,6.26,4.37,12.4,7.88,18.26,10.66.72.37,1.47.67,2.19,1.01.66.29,1.31.58,1.95.87.29.13.64.26.95.39.64.26,1.29.46,1.94.67.42.12.88.25,1.27.37-.32.17-.65.31-.99.4-.69.19-1.4.23-2.12.27-1.44.1-2.81.19-4.11.28-.64.05-1.27.1-1.89.17-.31.03-.62.07-.92.1l-.2.02s-.03,0-.05,0c-.06,0-.05,0-.24,0-1.17-.01-2.31-.02-3.42-.03-8.87-.06-15.75.01-21.66-.58-6.14-.78-12.44-2.66-18.24-6.08-2.86-1.69-5.79-3.7-8.66-5.67-2.87-1.99-5.69-4.06-8.42-6.2-5.45-4.28-10.46-8.93-14.64-13.85-.53-.61-1.04-1.23-1.53-1.85-.5-.62-.99-1.22-1.5-1.92l-.75-1.01-.38-.5c-.12-.15-.35-.44-.54-.64-.8-.88-1.92-1.4-3.07-1.56-.58-.09-1.19-.1-1.62-.1-.4,0-.8,0-1.19.01-.77.01-1.46.02-2.21,0-1.47,0-2.92-.05-4.34-.09h3.69c1.25-.01,2.37-.06,3.68-.11.33-.01.68-.02,1.14,0,.48.02.96.06,1.44.16.94.2,1.83.65,2.52,1.32.79.78,1.03,1.21,1.47,1.74.4.5.82,1.05,1.21,1.52l-1.48-2-.37-.51c-.05-.07-.14-.18-.25-.31-.1-.12-.2-.24-.31-.36-.43-.46-.93-.85-1.49-1.14-.56-.29-1.17-.47-1.79-.57-.31-.05-.63-.08-.95-.1-.32-.02-.54-.02-.79-.03h-2.39c-3.08-.04-6.22-.21-9.4-.36-4.13-.11-7.88-.13-11.31.14-1.71.13-3.33.31-4.88.57-.76.1-1.55.29-2.31.46-.76.18-1.52.31-2.22.57-5.72,1.78-10.08,4.51-14.02,8.08-2.01,1.75-3.8,3.84-5.62,6.18-1.73,2.42-3.4,5.16-4.85,8.44-1.39,3.3-2.58,7.14-3.12,11.62-.12,1.03-.24,2.09-.37,3.18-.14.97-.34,1.91-.66,2.68-.31.79-.73,1.36-1.35,1.88-.61.53-1.53.98-2.61,1.35-3.5,1.14-6.76,2.2-9.78,3.18-3,1.15-5.76,2.21-8.33,3.19-2.55,1.03-4.83,2.11-6.98,3.05-1.06.48-2.1.92-3.06,1.39-.96.49-1.88.95-2.76,1.4-1.76.9-3.37,1.73-4.85,2.49-1.47.78-2.77,1.58-3.99,2.28-2.42,1.44-4.47,2.57-6.18,3.76-3.45,2.32-6.04,4-8.93,6.19-1.47,1.06-3.04,2.2-4.88,3.52-1.82,1.36-3.91,2.91-6.42,4.79-15.38,10.77-29.72,22.97-43.48,35.71l1.02-.72c-5.86,5.9-9.84,10.05-13.46,13.76-.91.93-1.79,1.83-2.68,2.73-.89.93-1.76,1.92-2.55,3.04-.42.6-.7,1.06-1.08,1.56-.4.51-.81,1.03-1.23,1.56-.84,1.1-1.86,2.37-2.28,4.24-.21.93-.13,1.97.17,2.9.3.93.73,1.81,1.47,2.62.72.81,1.73,1.42,2.77,1.74,1.05.33,2.12.44,3.16.49.99.02,2.02.04,3.09.06,1.09.03,2.21.06,3.39.1,2.35,0,4.89,0,7.63-.18,5.48-.29,11.78-1.07,19.1-2.31,7.32-1.26,15.62-2.94,25.29-4.76l-3.62.14c26.11-4.39,37.1-7.55,70.54-13.99,8.18-1.59,24.87-4.55,43.15-7.54,9.14-1.48,18.68-2.99,27.75-4.33,9.05-1.44,17.65-2.31,24.95-2.78,7.45-.22,14.42-.04,20.98.55,6.55.56,12.72,1.5,18.48,2.79,5.7,1.36,10.95,3.62,15.15,7.02,2.09,1.7,3.93,3.66,5.33,5.87,1.41,2.21,2.42,4.64,2.99,7.17,1.17,5.07.52,10.4-1.21,15.31-1.75,4.93-4.54,9.51-7.92,13.76-6.61,8.64-14.56,16.95-24.16,25.48-11.68,10.08-22.12,18.18-29.99,24.48-7.89,6.28-13.39,10.57-16.01,12l4.39-3.4c-3.2,2.11-6.41,4.2-9.63,6.26l-.72,1.34c-7.47,5.47-16.64,12.07-25.97,17.81-2.33,1.44-4.67,2.82-6.97,4.14-2.33,1.29-4.61,2.56-6.81,3.78-2.2,1.24-4.28,2.38-6.35,3.23-2.07.87-4.1,1.55-5.98,2.15-1.63.65-3.39,1.31-4.95,1.91l-5.18,1.14c-3.51.76-6.99,1.61-10.5,1.82-3.5.2-7.07-.43-10.44-1.49-1.66-.59-3.24-1.46-4.54-2.67-1.27-1.23-2.28-2.79-2.68-4.55.56,2.61,2.4,4.88,4.77,6.28,2.36,1.45,5.18,2.08,7.97,2.61,1.41.24,2.84.38,4.29.38,1.45,0,2.9-.13,4.34-.31,2.89-.39,5.77-.97,8.66-1.5l-1.2.05c1.37-.27,2.99-.58,4.79-.93,1.72-.61,3.65-1.28,5.67-2.04,2.02-.76,4.17-1.59,6.29-2.62,2.13-1.02,4.21-2.29,6.34-3.52,8.61-4.74,17.07-10.13,22.47-13.69-4.24,2.97-8.55,5.85-12.95,8.59,3.83-2.3,5.9-3.55,6.79-4.09.9-.52.64-.28-.22.33-1.72,1.25-5.9,3.97-8.05,5.27-3.9,2.21-7.17,4.07-9.97,5.66-2.79,1.63-5.27,2.79-7.39,3.64-2.12.86-3.9,1.52-5.46,2.1-.78.29-1.5.56-2.2.82-.36.13-.7.26-1.04.39-.19.09-.41.1-.59.15l-.5.11c-2.67.56-5.05,1.13-8.5,1.83-1.73.33-3.73.73-6.25.86-2.51.14-5.54-.12-8.92-1.03-1.51-.4-3.49-1.08-5.2-2.21-1.75-1.09-3.19-2.73-4-4.29-.83-1.57-1-2.99-1.03-3.63-.02-.65,0-.55.21.61-.19-1.08-.24-2.3-.04-3.58.23-1.3.59-2.51,1.04-3.85.47-1.31,1.05-2.73,2.05-4.02.5-.65,1.1-1.21,1.66-1.73.56-.51,1.07-1.01,1.53-1.58,3.86-4.92,8.25-10.24,11.42-15.71,1.59-2.73,2.85-5.51,3.57-8.19.73-2.67,1.12-5.19,1.09-7.36,0-.54.04-1.06,0-1.55-.04-.49-.07-.96-.11-1.4-.04-.44-.07-.85-.1-1.23-.07-.38-.13-.73-.18-1.05-.24-1.28-.39-2.06-.53-2.21-.26-1.34-.36-1.85-.59-3.06,0,.68.05,1.54.14,2.57.06.51.09,1.07.09,1.67.02.6.04,1.23.06,1.91-.03,2.7-.24,5.99-1.33,9.55-.5,1.78-1.32,3.61-2.26,5.49-1.04,1.86-2.18,3.79-3.63,5.73-2.79,3.91-6.42,7.97-10.23,12.43Z"/>
        </g>
        <path class="cls-3" d="M206.74,294.33c-.1,13.89-5.21,26.49-10.43,39.65,5.18-.36,7.56-3.31,10.25-5.56,22.48-18.79,42.59-40.06,62.5-61.5,6.06-6.53,11.24-14.04,16-21.63,5.76-9.17,3.57-13.07-7.31-14.2-11.6-1.21-23.12.1-34.62,1.6-43.62,5.69-87.23,10.83-129.02,26.33-28.23,10.47-57.05,19.53-86.85,24.75-3.03.53-6.03.91-8.97,1.01-12.98.4-22.01-13.36-16.81-25.66,6.9-16.3,17.61-30.26,30.07-42.93,24.96-25.38,51.93-48.54,79.83-70.54,11.49-9.06,20.82-19.74,27.46-32.46,5.66-10.85,9.81-22.3,14.41-33.97,7.32-18.59,11.77-33.94,13.65-51.94.81-7.79,1.08-15,6.28-22.67,2.23-2.3,10.84.01,11.13,0,22.26,3.84,14.84,2.3,25.23,5.37,9.45,2.79,14.23,8.3,18.5,17.71,10.92,24.04,24.97,46.39,41.08,67.21,17.74,22.94,40.71,39.36,69.26,47.52-7.29,3.33-13.09,1.47-24.22,2.6-21.52-.77-33.09-.32-47.61-9.86-12.53-8.23-24.59-17.05-33.6-29.41-1.34-1.84-2.64-1.4-6.35-1.4-9.32,0-16.8-.96-25.57.56-14.64,2.53-27.73,16.99-29.21,34.3-.5,5.79-2.13,8.37-7.27,9.93-49.99,15.12-87.75,48.52-123.74,84.52-1.17,1.17-2.31,2.43-3.21,3.82-1.91,2.94-5.63,5.57-3.41,9.67,1.87,3.44,5.73,2.79,8.98,2.93,16.02.7,31.69-2.79,47.18-5.72,49.47-9.35,98.7-20.08,148.52-27.34,19.94-2.91,40.41-3.41,60.32.78,26.32,5.54,33.68,27.13,17.16,48.68-16.4,21.39-37.72,37.47-58.63,53.85-17.51,13.72-35.08,27.42-54.59,38.33-8.09,4.53-7.69,5.05-21.04,9.66-12.61,2.3-16.14,3.73-24.95,1.23-6.62-1.88-9.98-6.85-8.44-12.74,1.92-7.34,3.71-6.91,5.92-9.73,11.34-14.48,19.6-24.2,14.85-42.45M202.68,52.01c-.17-.42-.75-.38-.85.06-2,8.35-7.37,15.04-8.77,21.78-1.06,5.09-.57,5.18,5.91,7.67,6.05,2.33,12.67.5,18.84,3.3-6.62-10.69-10.22-20.43-15.13-32.81Z"/>
        <path class="cls-3" d="M264.62,98.95c11.16,7.12,24.6,16.4,36.57,22.63,14.38,7.41,29.8,15.75,44.3,22.69-.17.36-1.64.32-.51,1.08,4.59,2.83,4.28,3.53,3.95,4.26-.17.37-3.67-1.7-2.62-.77-3.67-1.71-9.83-4.53-6.36-2.38,1.04.97,6.1,2.94,7.08,4.04.98,1.12-1.73.51-.75,1.63,1.24.58,3.72,1.7,4.98,2.25,1.09.91-1.74.55-.48,1.1,1.81,1.01,4.01,2,6.44,2.95,1.22.47,2.5.94,3.84,1.37,1.35.43,2.72.85,4.29,1.17-.04.2.25.46.22.63-.02.09-.12.15-.38.17-.3,0-.85-.04-1.6-.19-3.25-.86-6.09-1.95-8.95-3.07-2.84-1.13-5.63-2.33-8.4-3.57-5.53-2.47-10.97-5.08-16.38-7.77-10.82-5.39-21.49-11.09-32.03-17.07-10.53-5.99-20.92-12.23-31.02-18.98-5.05-3.38-10.02-6.88-14.86-10.68-2.42-1.91-4.8-3.89-7.12-6.05-1.16-1.1-2.31-2.21-3.43-3.48-1.12-1.27-2.23-2.59-3.27-4.38-.23-.45-.43-.79-.59-1.21-.16-.41-.29-.77-.39-1.08-.19-.73-.26-1.27-.28-1.57.03-.17.08-.22.15-.19.04.02.08.05.13.11.05.07.13.25.21.42.17.34.38.9.66,1.31.14.23.29.47.44.73.16.24.33.45.51.69.71.95,1.55,1.8,2.39,2.61-1.11-1.11-.64-1.43-1.68-2.73.26-.14,1.02.4,2.19,1.36,1.18.97,2.8,2.34,4.88,4.16-1.01-.94-1.98-1.93-2.93-2.97-.77-1.2.45-.38.74-.66.91,1.02,1.89,1.97,2.03,1.83.14-.14.42-.43.56-.57-.97-.92-2.77-2.89-3.5-3.96.77,1.05,1.66,2.04,1.81,1.91.15-.13.45-.4.59-.53,1.84,1.79,4.54,4.75,6.74,6.3l.38-.46c-1.93-1.84-5-4.33-6.68-6.24,1.01.8,1.15.66,1.44.38,2.77,2.57,5.46,5.59,8.96,7.57-1.05-.81-2.08-1.64-3.09-2.48,2.61.93,7.4,5.57,10.82,7.71Z"/>
        <path class="cls-3" d="M163.08,333.99c1.92-3.29,4.07-6.85,5.73-10.63,1.63-3.77,2.73-7.79,2.77-11.45,0-2.2-.16-4.4-.44-6.59-.32-2.19-.82-4.36-1.44-6.5-1.34-4.25-3.32-8.35-5.84-11.99.36-.25,1.34,0,1.1-.75-.56-1.45-.74-2.28-.64-2.84.09-.56.44-.83.79-1.1.36-.27,1.44,1.9,1.33,1,1.41,1.93,3.64,5.28,2.77,2.99-.01-.47-.55-1.33-1.11-2.18-.54-.86-1.08-1.72-1.08-2.24.03-1.06,1.57-.13,1.59-1.19-.52-.67-1.53-2.03-2.1-2.66-.21-.93,1.57-.2,1.02-.85-1.3-2.31-3.87-4.65-6.35-7,.31-.3-.03-1.25,1.38-.21,5.59,5.13,10.67,11.22,14.27,18.42,3.61,7.17,5.44,15.55,4.81,23.78-.57,8.24-3.42,16.11-7.5,22.89-4.08,6.81-9.34,12.64-15.1,17.59-2.73,2.16-1.35-.26.09-2.46-.48.74-.93.24-1.41.98-.44-.5.1-2.42,2.3-4.91-.58.6-1.19,1.16-1.79,1.74-.75.42-.46-.48-.76-.8.59-.57,1.18-1.14,1.03-1.3-.16-.16-.47-.47-.62-.63-.59.55-1.73,1.71-2.35,2.23.61-.53,1.18-1.11,1.03-1.27-.15-.16-.46-.48-.61-.64,1.01-1.25,3.01-2.65,3.92-3.99l-.49-.45c-1.22,1.02-2.72,2.87-3.89,3.96.42-.71.26-.87-.04-1.19,1.54-1.77,3.62-3.06,4.66-5.26l-1.55,1.75c.25-1.86,3.37-4.24,4.54-6.27Z"/>
      </g>
    </g>
  </g>
</svg>