<?xml version="1.0" encoding="UTF-8"?>
<svg id="Camada_2" data-name="Camada 2" xmlns="http://www.w3.org/2000/svg" viewBox="0 0 354.78 360.49">
  <defs>
    <style>
      .cls-1 {
        fill: none;
      }

      .cls-1, .cls-2 {
        stroke-width: 0px;
      }

      .cls-2 {
        fill: #ff780a;
      }
    </style>
  </defs>
  <g id="prancheta-2">
    <g>
      <g>
        <path class="cls-1" d="M200.73,282.55c-.09,13.46-5.05,25.68-10.11,38.43,5.02-.34,7.33-3.21,9.94-5.39,21.79-18.22,41.29-38.83,60.58-59.61,5.88-6.33,10.89-13.61,15.51-20.97,5.58-8.89,3.46-12.67-7.08-13.77-11.24-1.17-22.41.1-33.56,1.55-42.28,5.51-84.55,10.5-125.06,25.53-27.36,10.15-55.3,18.93-84.18,23.99-2.94.52-5.85.89-8.69.97-12.58.39-21.34-12.95-16.29-24.87,6.69-15.8,17.07-29.33,29.15-41.61,24.19-24.6,50.34-47.05,77.37-68.37,11.13-8.78,20.18-19.13,26.61-31.47,5.48-10.51,9.51-21.61,13.96-32.93,7.09-18.02,11.41-32.9,13.23-50.34.79-7.55,1.05-14.54,6.09-21.98,2.16-2.23,10.51.01,10.79,0,21.58,3.72,14.38,2.23,24.45,5.21,9.16,2.71,13.79,8.05,17.93,17.17,10.58,23.31,24.21,44.97,39.82,65.15,17.2,22.23,39.46,38.15,67.13,46.06-7.06,3.23-12.68,1.43-23.47,2.52-20.86-.74-32.07-.31-46.15-9.56-12.14-7.98-23.84-16.53-32.57-28.51-1.3-1.78-2.56-1.36-6.15-1.36-9.03,0-16.28-.93-24.79.54-14.19,2.45-26.88,16.47-28.32,33.25-.48,5.61-2.06,8.11-7.05,9.62-48.45,14.66-85.05,47.03-119.94,81.93-1.14,1.14-2.24,2.36-3.11,3.7-1.85,2.85-5.46,5.4-3.3,9.37,1.81,3.34,5.56,2.71,8.71,2.84,15.53.68,30.71-2.7,45.73-5.54,47.95-9.07,95.67-19.46,143.96-26.5,19.33-2.82,39.17-3.3,58.47.76,25.51,5.37,32.64,26.3,16.63,47.18-15.9,20.74-36.56,36.31-56.83,52.19-16.98,13.3-34,26.57-52.92,37.15-7.84,4.39-7.45,4.9-20.4,9.36-12.23,2.23-15.64,3.62-24.18,1.19-6.42-1.82-9.67-6.64-8.18-12.35,1.86-7.12,3.6-6.69,5.74-9.43,10.99-14.04,19-23.46,14.4-41.15M196.79,47.67c-.16-.4-.73-.37-.83.06-1.94,8.09-7.14,14.57-8.5,21.11-1.03,4.94-.55,5.02,5.73,7.44,5.86,2.26,12.28.49,18.26,3.2-6.41-10.37-9.91-19.8-14.66-31.8Z"/>
        <path class="cls-2" d="M193.63,51.13c.41.64.84,1.21,1.32,1.66.4,3.31,2.86,4.1,3.76,7.36,1.16,2.76,2.39,4.54,3.21,7.35,1.06.03,1.56,1.34,2.1,2.81.26.74.55,1.51.88,2.19.11.21.12.23.17.31.05.07.11.13.17.19.13.12.31.23.54.35.3.33.76.65,1.15.86.39.2.72.25.68-.13.93,1.53-.44.72.64,1.97-.4-.29-.79-.55-1.17-.79-.06.19-.46.16-.08.57.44.34.91.72,1.39,1.14-.08.03-.12.08-.11.15-.02.02.05.11,0,.09l-.19-.08c-.21-.08-.29-.08-.4-.04-.19.06-.55.13-1.53-.26.72.36.75.45.6.52-.13.07-.42.11-.13.41-.53-.33-1.63-.6-1.39-.76-.72-.18-1.27,0-1.93.1-.67.1-1.41.1-1.87-.39l-.67.25c-1.14.33-1.98-.25-2.95-.5l-.18.34c-.69.11-1.91-.14-2.37-.62-.82-.29-1.73-.47-2.78-.64-1.03-.16-2.08-.23-3.03-.44-.78-.58-1.07-.6-1.47-.56-.35,0-.88.14-1.58-.67-.27-.61-.52-1.47-.52-2.32-.03-.42.05-.84.1-1.19.08-.3.18-.54.34-.69-.11.76.08,1.34.29,1.77.21.45.36.85.55,1.62.02-.18.11-.11.24.03.16.13.36.35.6.49.49.29.89.38.6-.13-.33-.12-.62-.32-.84-.6-.21-.28-.33-.63-.36-1-.08-.73.05-1.5.19-2.3.29-1.6.74-3.1.86-4.52.43.27.86-.46,1.27-1.38.41-.92.81-2.06,1.01-2.62l.27.05c.57-.86.97-1.51,1.4-3.13.8-1.8,1.47-3.6,2.6-4.95.8-1.01,1.15-2.36,1.25-3.56.03-.61,0-1.19-.06-1.66-.07-.14.03-.37.26-.43.22-.08.49.04.64.21-.05-.3-.38-.61-.76-.61-.37-.03-.79.28-.88.65-.14.35-.25.68-.35,1.02-.19.68-.37,1.34-.54,1.97-.4,1.26-.89,2.41-2.07,3.08,1.05-1.74.75-2.03.8-3.61l-.57.64.03-.67c-.43.19-.44-.69-.81-.71-.24.71-.49,1.41-.78,2.12.74-1.03.8-.14,1,.34-.2.36-.37.72-.58,1.07.27-.19.69-.83.54.07-.27.42-.33,1.11-.79,1.51-.08-.4-.18-.8-.28-1.2-.07,1.61-1.88,2.01-2.03,3.64l-.9.08-.6,1.35-.17-.27-.89,1.57c-.32.96-.05,1.25.12,1.52-.29.72-.5,1.45-.77,1.69l-.07-1.03c-.16.24-.32.47-.48.72.37-.49,0,.78.08,1.05-.79,1.81-.54,1.27-1.3,2.38-.06.67-.29,1.42-.46,2-.14.55-.2.93.1,1.02-.1.3-.2.65-.29.98-.08.43-.18.98-.23,1.48-.08,1.02.03,2.04.36,2.99.69,1.94,2.43,3.21,4.17,4.04.41.05.79.08,1.16.1,1.12.7,1.92.97,2.77,1.19.42.11,1.03.24,1.59.37.57.09,1.21.23,1.91.34l-.26.13c.55-.06,1.09-.1,1.61-.2,2,.66,2.86-.21,4.99.46.28.05.56.08.8.1.12,0,.24.01.35.02.15,0,.29,0,.43,0,.77,0,1.41.02,1.93-.06.51-.09.95-.13,1.28-.24.33-.11.55-.26.71-.45.85.07,1.84.39,3.21.98,1.28.54,2.88,1.31,4.02,1.76-.24.02-.52.02-.84,0l2.67,1.38c.63.22,1.15.41,1.57.57-.06-.14-.11-.27-.16-.39-.03-.09-.03-.13-.05-.2-.03-.12-.05-.24-.1-.39-.03-.08-.06-.16-.09-.24-.03-.06-.01-.07-.08-.17-.06-.09-.13-.19-.2-.29-.28-.41-.63-.91-1.08-1.52-.79-1.63-1.72-2.73-2.56-3.46-.85-.75-1.68-1.27-2.4-2.01-.13-.78-.37-1.7-.66-2.77l-.16.07c-1.01-.89-1.25-1.13-1.57-1.74-.36-.69-.56-1.37-1.34-2.9l-.4.37c.02-1.29-.94-1.38-1.53-2.75-.34-.65-.44-3.04-1.55-3.96-.55-2.6-2.46-3.18-3.23-5.31-.15-1.4-1.35-1.96-.64-2.52l.1.22.62-.79-.6.17c-.08-.84-.72-1.85-.34-2.75l-1.75-1.34c.27.39.39.9.52,1.4l.14-.11c.2.45.76,1.51.74,2.13l-.44-.56c.15.78-.36.28-.53.11-.31-1.57-.71-.95-1.27-2.02-.03-.28-.15-.78.09-.67-.37-.62-.63-2.52-1.23-2.35,0-.07.02-.1.03-.16-.93.62-1.65,1.76-2.23,3.09Z"/>
        <path class="cls-2" d="M147.03,330.92l-.35.43c-.11.12-.21.24-.34.37-.23.25-.58.56-1,.97-.42.4-.96.96-1.43,1.54-.47.59-.89,1.23-1.22,1.84-.68,1.24-1.1,2.39-1.47,3.5-.17.54-.35,1.1-.48,1.62l-.21.8c-.07.29-.14.65-.21.97-.26,1.32-.35,2.72-.19,4.13.13,1.4.52,2.81,1.13,4.08.59,1.28,1.39,2.44,2.31,3.41.91.99,1.93,1.78,2.98,2.45,1.05.66,2.14,1.17,3.22,1.58.54.23,1.09.36,1.63.53.52.15.98.25,1.47.38,1.93.47,3.96.82,6.01.93,2.05.12,4.07-.03,5.91-.28,1.85-.26,3.55-.6,5.19-.94,2.19-.39,4.34-.78,6.46-1.16l.82-.14c.26-.05.5-.07.74-.17l.54-.18c.51-.17,1.02-.35,1.53-.52,1.02-.36,2.03-.71,3.04-1.06,2.01-.72,4.02-1.47,6.02-2.36,2.01-.88,3.97-1.97,5.68-2.96,1.71-.98,3.4-1.94,5.07-2.89,1.71-.97,3.4-1.94,5.04-2.93,3.3-1.97,6.47-3.99,9.53-6.03,12.27-8.15,22.92-16.59,33.52-25.06,10.53-8.52,21.33-16.89,32.61-26.76,5.63-4.94,11.37-10.26,17.06-16.29,2.88-2.99,5.67-6.22,8.5-9.59.69-.86,1.38-1.73,2.07-2.6.35-.44.7-.88,1.05-1.32.35-.47.69-.94,1.04-1.41,1.36-1.91,2.68-3.92,3.8-6.1,1-1.94,1.89-3.93,2.55-6.01.67-2.07,1.2-4.19,1.44-6.36.26-2.16.29-4.35.06-6.52-.25-2.16-.77-4.29-1.55-6.3-1.53-4.06-4.18-7.52-7.25-10.23-3.11-2.69-6.62-4.69-10.22-6.11-1.8-.74-3.63-1.3-5.47-1.8-.92-.24-1.84-.44-2.76-.65-.9-.17-1.79-.35-2.68-.52-3.58-.66-7.14-1.2-10.7-1.55-7.11-.77-14.17-.98-21.18-.8-7.01.18-13.97.77-20.93,1.67-6.96.95-13.82,2.03-20.87,3.14-14.06,2.24-28.54,4.78-44.02,7.58-4.95,1.41-14.93,3.53-27.82,6.15-12.9,2.61-28.7,5.69-45.32,8.82-4.16.77-8.37,1.56-12.6,2.34-4.23.79-8.46,1.6-12.67,2.32-8.42,1.45-16.79,2.55-24.82,2.61-1,0-2,.03-2.99-.02-1.02-.03-2.04-.05-3.05-.08-2.07,0-3.85-.01-4.74-.56-.46-.24-.78-.57-1.06-1.12-.31-.58-.41-1.04-.36-1.48.04-.9.98-2.22,2.14-3.65.29-.36.59-.75.88-1.16.15-.2.3-.43.44-.64l.34-.51c.44-.64.94-1.25,1.47-1.86,1.06-1.18,2.34-2.42,3.47-3.59,2.31-2.37,4.49-4.6,6.52-6.68,11.08-10.99,19.95-19.11,23.67-22.69,3.79-3.49,2.23-2.69-6.8,5.09,2.02-1.78,3.89-3.43,5.62-4.95,1.72-1.52,3.37-2.85,4.86-4.11,2.97-2.53,5.54-4.51,7.75-6.23,2.19-1.74,4.09-3.12,5.78-4.34,1.7-1.22,3.17-2.32,4.64-3.32,1.47-1,2.9-1.96,4.45-3.01.77-.53,1.57-1.07,2.42-1.66.86-.56,1.78-1.15,2.77-1.78.98-.64,2.04-1.33,3.19-2.07.57-.37,1.17-.76,1.79-1.17.63-.38,1.29-.78,1.98-1.2,1.38-.84,2.87-1.75,4.49-2.74,1.61-1.02,3.45-1.96,5.4-3.08-1.71,1.09-3.46,2.09-5.13,3.24l-5.02,3.4c10.14-6.07,21.82-11.97,36.22-17.57,1.34-.55,2.66-1.19,4.03-1.67l4.09-1.52,4.13-1.53c1.48-.54,3.02-1.26,4.32-2.48,1.22-1.06,2.09-2.51,2.54-3.91.48-1.41.69-2.78.84-4.11.17-1.27.31-2.43.52-3.62.13-.58.26-1.16.39-1.74l.19-.86.26-.84c1.31-4.48,3.37-8.52,5.92-12.03,2.57-3.5,5.67-6.45,9.12-8.75,3.46-2.29,7.27-3.93,11.35-4.58,4.15-.72,8.42-.87,12.85-.8,4.42.06,9.06.27,13.82.11.27,0,.5,0,.7.02.21.01.42.05.63.11.41.12.77.39,1.04.73.35.45.7.91,1.05,1.37.36.48.71.95,1.13,1.44,1.57,1.98,3.3,3.89,5.11,5.81,1.84,1.9,3.8,3.77,5.87,5.63,2.09,1.84,4.29,3.66,6.61,5.48-3.01-2.38-5-4.15-6.27-5.31-1.26-1.17-1.81-1.73-1.86-1.81-.08-.17,1.86,1.58,4.56,3.73,5.35,4.38,13.95,10,12.69,8.83,1.45,1.04,3.94,2.85,6.93,4.72,3,1.84,6.58,3.54,9.82,4.62,3.23,1.09,6.06,1.68,7.44,1.95,1.38.29,1.33.33-1.08-.06,4.99.98,9.99,1.31,14.88,1.52,2.45.11,4.87.17,7.27.24,1.2.03,2.39.07,3.58.1l1.8.05c.19.01.35,0,.55-.02l.44-.04.87-.08c1.16-.1,2.32-.18,3.47-.23l.96-.04,1.05-.03c.7-.01,1.39-.03,2.09-.04,2.8-.03,5.31-.16,7.55-.46,2.25-.29,4.37-.82,6.53-1.64.54-.2,1.07-.45,1.61-.67.06-.02.02-.03,0-.04l-.07-.03-.14-.06-.28-.12-.55-.24c-.75-.33-1.49-.65-2.23-.97-2.46-.78-4.91-1.6-7.22-2.39-2.21-.86-4.42-1.64-6.46-2.51-.91-.4-1.8-.8-2.69-1.2-.87-.37-1.71-.77-2.53-1.19-1.65-.83-3.28-1.59-4.81-2.48-6.18-3.38-11.42-7.03-15.69-10.52-3.85-2.84-7.58-5.86-11.13-9.1-4.52-4.18-8.48-8.49-12.07-12.86-3.58-4.38-6.81-8.82-9.95-13.23-6.25-8.85-11.95-17.77-17.61-27.6-.63-.84-1.27-1.68-1.88-2.54-1.91-3.23-4.11-7.19-6.39-11.53-2.26-4.35-4.53-9.08-6.7-13.83-1.11-2.37-2.35-4.69-3.82-6.79-1.47-2.09-3.18-3.96-5.05-5.44-1.87-1.5-3.88-2.58-5.79-3.41-1.92-.84-3.75-1.33-5.28-1.86-1.74-.52-3.46-1.16-5.34-1.6-1.86-.42-3.71-.72-5.58-1.05-3.74-.63-7.55-1.28-11.41-1.93l-.13.69c-.02-.26-.03-.86-.03-.7h0s.01,0,.01,0c.02,0,0,0-.04,0l-.19-.04-.4-.08-.81-.17c-.54-.11-1.09-.21-1.64-.29-1.1-.17-2.22-.31-3.36-.35-.57-.01-1.15,0-1.74.04-.28.02-.62.08-.94.13-.31.08-.63.16-.93.27-.28.16-.6.24-.84.47-.12.1-.26.19-.37.3-.1.13-.18.26-.27.39l-.52.81c-.16.24-.3.49-.43.74-2.31,3.95-3.58,8.49-4.14,13.02-.31,2.27-.48,4.54-.7,6.81-.22,2.26-.47,4.53-.76,6.79-.6,4.52-1.41,9.02-2.4,13.48-1.98,8.91-4.73,17.6-7.77,25.97-1.53,4.18-3.11,8.29-4.62,12.35-1.52,4.06-3.04,8.04-4.62,11.91-4.03,9.33-7.07,15.12-9.49,19.09-2.41,3.97-3.99,6.24-5.5,8.4-1.52,2.16-3.02,4.2-5.78,7.34-2.77,3.1-6.9,7.34-14.16,13-9.2,7.12-21.48,17.25-32.62,26.94-11.16,9.68-21.15,18.94-26.45,23.65,11.72-11.13,18.49-17.37,25.45-23.74,6.99-6.33,14.23-12.75,27.59-23.37-2.6,1.98-1.1.69,2.24-2.06,3.32-2.77,8.66-6.8,13.03-11.08,2.2-2.12,4.2-4.26,5.8-6.08,1.59-1.83,2.78-3.35,3.42-4.21.63-.87.73-1.06.08-.31-.65.75-2.07,2.45-4.66,5.2-2.72,3.03-5.67,5.95-8.83,8.7-3.16,2.75-6.55,5.36-9.89,8.1-6.7,5.44-13.49,11.04-20.28,16.8-13.58,11.52-27.17,23.67-40.11,36.25-3.24,3.14-6.43,6.31-9.58,9.5-3.16,3.18-6.21,6.44-9.11,9.8-5.8,6.71-10.99,13.83-15.23,21.29-2.12,3.73-4,7.54-5.62,11.4-.75,1.95-1.38,3.98-1.45,6.06-.14,1.03,0,2.06.03,3.09.06.51.17,1.01.25,1.52l.13.75.22.73c.49,1.98,1.47,3.79,2.55,5.45,1.14,1.65,2.56,3.05,4.12,4.23,3.19,2.27,7.06,3.38,10.79,3.14-1.13.25,3.05.51,10.19-.79,7.13-1.19,17.27-3.24,28.2-6.11,10.94-2.83,22.67-6.45,33.17-10.02,5.25-1.8,10.2-3.55,14.61-5.17,2.2-.82,4.27-1.58,6.18-2.29,1.91-.69,3.66-1.32,5.21-1.88l1.68-.32c10.76-3.61,20.29-6.24,31.51-8.94,11.23-2.66,24.19-5.31,42.01-8.23,10.67-1.66,21.34-3.12,31.89-4.51,5.28-.69,10.52-1.38,15.73-2.06,5.2-.66,10.37-1.23,15.51-1.49,5.13-.26,10.23-.21,15.22.32,2.47.27,4.97.69,7.1,1.78,1.04.56,1.94,1.36,2.33,2.41.4,1.04.3,2.24.03,3.37-.66,2.28-1.92,4.35-3.2,6.37-1.3,2.02-2.62,4.01-3.97,5.95-2.69,3.88-5.51,7.57-8.49,10.98-1.41,1.63-2.91,3.2-4.43,4.8-1.52,1.6-3.04,3.21-4.57,4.82-3.07,3.22-6.17,6.47-9.27,9.74-6.23,6.5-12.54,12.99-18.87,19.23-6.32,6.23-12.63,12.25-18.84,17.79-3.03,2.76-6.4,5.56-8.71,7.7-1.26,1.15-2.68,2.2-4.31,2.78-.81.29-1.65.49-2.5.58l-.16.02s-.06,0-.08,0l.03-.07.1-.28.21-.56c.14-.37.28-.74.42-1.11.62-1.67,1.22-3.3,1.81-4.89.29-.83.58-1.65.87-2.45.29-.83.6-1.74.88-2.6,1.15-3.46,2.09-6.75,2.8-9.84,1.44-6.18,1.83-11.53,1.74-15.56-.13,6.3-1.34,12.49-3.11,18.44-.88,2.98-1.89,5.91-2.97,8.81-1.21,3.26-2.53,6.58-3.84,9.85l-.44,1.9c-.07.12.08.08.18.07l.32-.03c.21-.02.43-.04.64-.07.42-.06.84-.13,1.24-.23,1.63-.35,3.12-1.04,4.52-1.98,1.39-.92,2.71-2.16,4.11-3.35,1.25-1.06,2.49-2.11,3.73-3.17,4.79-4.13,9.43-8.33,13.92-12.56,9-8.46,17.44-17.06,25.5-25.48,4.01-4.23,7.95-8.39,11.82-12.48,1.93-2.05,3.84-4.08,5.73-6.09,1.9-2.03,3.69-4.12,5.39-6.25,3.4-4.25,6.45-8.62,9.33-12.94,1.42-2.14,2.92-4.36,3.8-6.96.41-1.3.74-2.77.35-4.35-.38-1.58-1.58-2.89-2.8-3.61.35.25.71.44,1.04.74.31.32.66.58.91.96.54.72.93,1.58,1.04,2.42.27,1.7-.1,3.22-.57,4.5-.94,2.59-2.36,4.66-3.55,6.55-2.45,3.81-4.72,7.14-6.89,10.08-2.16,2.94-4.22,5.51-6.24,7.81-2.04,2.31-3.93,4.31-5.75,6.33-3.66,4-7.1,7.77-11.09,12.15-4.02,4.36-8.62,9.33-14.75,15.61,4.45-4.28,8.83-8.63,13.18-13.01-3.43,3.67-6.87,7.33-10.37,10.94,2.83-2.62.8-.32-1.73,2.44-2.53,2.76-5.59,5.96-4.64,5.28,6.55-6.39,12.94-12.93,19.24-19.54l9.39-9.95,4.66-5,2.34-2.52c.8-.87,1.58-1.75,2.34-2.65-1.23,1.42-2.43,2.7-3.43,3.75-1.02,1.06-1.91,1.99-2.69,2.81-1.57,1.63-2.71,2.78-3.48,3.55-1.55,1.53-1.66,1.52-.96.64.7-.88,2.2-2.63,3.88-4.56,1.67-1.94,3.53-4.03,4.92-5.76,3.19-3.6,6.1-7.41,8.82-11.32,1.36-1.95,2.68-3.93,3.97-5.92,1.25-1.95,2.65-4.04,3.69-6.51-.37.87-.88,1.83-1.45,2.83-.3.48-.61.98-.92,1.48-.31.47-.62.95-.93,1.42-1.24,1.88-2.47,3.66-3.23,4.73-.77,1.07-1.06,1.42-.45.43.31-.49.84-1.33,1.64-2.59.39-.63.86-1.37,1.39-2.22.53-.86,1.13-1.79,1.81-2.99.76-1.28,1.51-2.69,2.07-4.35.28-.82.51-1.74.57-2.75.02-.52.05-1.03-.06-1.6-.05-.28-.08-.56-.16-.83-.1-.28-.2-.55-.31-.82-.2-.56-.6-1.01-.93-1.5-.4-.38-.8-.83-1.23-1.12-.87-.63-1.78-1.06-2.67-1.39-1.8-.67-3.57-.97-5.32-1.2-6.93-.85-13.95-.69-20.3-.34,3.76-.4,7.55-.7,11.38-.75,1.91-.04,3.83,0,5.76.08,1.91.1,3.88.23,5.93.59-2.36-.46-4.56-.59-6.69-.74-2.15-.14-4.27-.18-6.35-.18-4.17,0-8.22.23-12.16.55-7.9.67-15.36,1.67-22.85,2.5-14.98,1.74-30.02,3.48-47.02,6.67-3.5.35-7.01.69-10.51,1.11-10.7,2.06-21.37,4.45-31.91,7.34l3.51-1.23c-3.17.87-6.35,1.65-9.5,2.61l-4.73,1.39-4.7,1.5c-3.14.97-6.24,2.09-9.34,3.18l-9.15,3.29c-9.83,3.55-15.47,5.59-19.11,6.9-3.62,1.31-5.19,1.98-6.92,2.65-7.69,2.4-15.28,4.58-21.77,6.25-6.49,1.67-11.85,2.89-15.05,3.47,6.04-1.46,12.05-3.07,18.02-4.82-5.56,1.43-11.15,2.72-16.76,3.91,5.76-1.22,2.29-.32-3.16.91-5.44,1.21-12.94,2.7-14.85,2.98-1.14.14-2.23.25-3.27.31-.51.03-1.03.06-1.5.06-.42-.02-.84-.04-1.24-.05-.41.01-.8-.06-1.17-.14-.38-.07-.75-.12-1.11-.2-.35-.11-.69-.23-1.03-.34-.17-.05-.33-.1-.5-.15-.16-.07-.31-.15-.46-.22-2.47-1.11-4.15-2.71-5.31-4.21-.27-.4-.59-.73-.79-1.12-.22-.38-.42-.74-.62-1.08-.2-.34-.31-.71-.46-1.04-.13-.34-.31-.64-.38-.97-.41-1.27-.58-2.35-.68-3.35-.02-.5-.03-.98-.05-1.46.05-.47.09-.94.14-1.41,0-.48.18-.95.28-1.45.06-.25.12-.51.18-.78.1-.26.2-.52.31-.8.1-.28.21-.56.32-.86.13-.33.33-.71.5-1.09.36-.76.72-1.61,1.19-2.51.9-1.81,1.99-3.96,3.48-6.5,2.89-5.37,6.51-10.75,10.39-15.73,3.88-4.97,8.01-9.54,11.81-13.43,7.68-7.84,13.55-13.4,13.83-14.13,16.67-15.76,34.65-31.24,52.92-45.94,4.61-3.68,9.21-7.35,13.78-11,4.64-3.86,8.99-8.06,12.9-12.59,3.91-4.54,7.4-9.39,10.35-14.49,1.49-2.55,2.82-5.14,4.06-7.69,1.24-2.57,2.4-5.14,3.51-7.7,2.47-6.07,4.67-12.16,6.88-18.19,3.53-8.66,6.57-16.75,8.87-24.43,2.33-7.68,3.98-15.01,5.07-22.16.56-3.56.97-7.14,1.28-10.6.32-3.44.65-6.66,1.42-9.67.38-1.5.88-2.95,1.5-4.35.32-.7.64-1.4,1.03-2.07.19-.34.37-.68.59-1.01.05-.08.02-.04.04-.07.01-.02.02-.05.05-.06.09-.09.14-.1.35-.13.57-.05,1.31-.04,2.07.02.77.06,1.59.17,2.42.31l1.27.23.66.13.36.08.21.04s.24.05.43.07c.21.02.41.03.62.03l-.79-.05c2.85.47,5.77.95,8.78,1.45,1.5.25,3.02.5,4.57.76,1.54.26,3.06.52,4.37.87,1.37.38,3.05.94,4.68,1.42,1.72.51,3.11.92,4.55,1.5,2.82,1.18,5.37,2.88,7.51,5.35-.87-.87-1.75-1.69-2.73-2.36,3.29,2.47,5.73,6.24,7.79,10.44,2.12,4.39,4.35,8.94,6.7,13.3,4.63,9.18,9.01,16.73,13.29,23.52,4.28,6.79,8.44,12.85,12.9,18.94,2.23,3.04,4.52,6.11,6.97,9.25,1.19,1.58,2.53,3.17,3.85,4.82,1.34,1.63,2.78,3.26,4.25,4.94,6.02,6.62,13.3,13.67,23.16,20.74,6.07,4.24,12.02,7.64,17.7,10.34.7.36,1.42.65,2.12.97.64.28,1.27.57,1.89.84.28.13.62.25.92.37.62.25,1.25.44,1.88.65.4.12.85.24,1.23.36-.31.17-.63.3-.96.39-.66.19-1.35.22-2.06.27-1.4.09-2.72.18-3.98.27-.62.05-1.23.1-1.83.17-.3.03-.6.07-.89.1l-.2.02s-.03,0-.05,0c-.06,0-.05,0-.24,0-1.14-.01-2.24-.02-3.32-.03-8.59-.06-15.26.01-21-.56-5.95-.75-12.06-2.58-17.68-5.9-2.78-1.64-5.61-3.58-8.39-5.5-2.78-1.93-5.52-3.93-8.16-6.01-5.28-4.15-10.14-8.66-14.19-13.43-.52-.59-1.01-1.19-1.48-1.79-.48-.6-.96-1.18-1.45-1.86l-.73-.98-.36-.49c-.11-.15-.34-.43-.52-.62-.78-.85-1.86-1.36-2.98-1.51-.56-.09-1.15-.09-1.57-.1-.39,0-.77,0-1.16.01-.74.01-1.42.02-2.14,0-1.43,0-2.83-.05-4.21-.08h3.58c1.21-.01,2.3-.06,3.56-.11.32,0,.65-.02,1.11,0,.47.01.94.06,1.39.16.91.19,1.77.63,2.45,1.28.76.76,1,1.17,1.42,1.68.39.49.79,1.02,1.17,1.47l-1.43-1.94-.36-.49c-.05-.07-.13-.18-.24-.3-.1-.12-.19-.24-.3-.35-.42-.45-.9-.82-1.44-1.1-.54-.28-1.13-.45-1.74-.55-.3-.05-.61-.08-.92-.09-.31-.02-.52-.02-.77-.02h-2.31c-2.99-.04-6.03-.2-9.11-.35-4-.1-7.64-.13-10.96.14-1.66.13-3.23.3-4.73.55-.74.1-1.5.28-2.24.44-.74.18-1.47.3-2.15.55-5.54,1.73-9.77,4.38-13.59,7.83-1.95,1.69-3.68,3.72-5.45,5.99-1.67,2.34-3.3,5-4.71,8.18-1.35,3.2-2.5,6.92-3.03,11.27-.11,1-.23,2.02-.35,3.08-.13.94-.33,1.85-.64,2.6-.3.77-.71,1.32-1.31,1.83-.59.51-1.49.95-2.53,1.31-3.4,1.1-6.55,2.13-9.48,3.08-2.9,1.11-5.59,2.14-8.07,3.09-2.47,1-4.69,2.05-6.76,2.95-1.03.47-2.03.89-2.97,1.35-.93.47-1.82.92-2.67,1.36-1.7.87-3.26,1.67-4.7,2.41-1.43.76-2.69,1.53-3.87,2.21-2.34,1.39-4.34,2.49-5.99,3.64-3.34,2.25-5.85,3.88-8.65,6-1.42,1.03-2.95,2.13-4.73,3.42-1.77,1.32-3.79,2.82-6.22,4.64-14.91,10.44-28.81,22.26-42.14,34.61l.99-.7c-5.68,5.72-9.54,9.74-13.04,13.33-.88.9-1.74,1.78-2.59,2.65-.87.91-1.71,1.86-2.48,2.94-.41.58-.67,1.03-1.05,1.51-.39.49-.79,1-1.19,1.51-.82,1.06-1.81,2.3-2.21,4.11-.2.9-.12,1.91.17,2.81.3.9.71,1.75,1.42,2.54.69.78,1.67,1.37,2.69,1.69,1.02.32,2.05.43,3.07.47.96.02,1.96.04,3,.06,1.05.03,2.15.06,3.28.09,2.28,0,4.74,0,7.39-.18,5.32-.28,11.42-1.04,18.51-2.24,7.1-1.22,15.14-2.84,24.51-4.61l-3.51.14c25.31-4.25,35.96-7.32,68.37-13.56,7.93-1.54,24.1-4.41,41.82-7.3,8.86-1.43,18.1-2.9,26.9-4.2,8.77-1.39,17.11-2.24,24.18-2.69,7.22-.21,13.98-.04,20.34.53,6.35.55,12.33,1.45,17.91,2.7,5.52,1.32,10.61,3.51,14.69,6.8,2.03,1.64,3.81,3.54,5.17,5.69,1.37,2.14,2.35,4.5,2.9,6.95,1.14,4.91.5,10.08-1.17,14.84-1.7,4.78-4.4,9.22-7.68,13.34-6.4,8.38-14.12,16.43-23.42,24.7-11.32,9.77-21.44,17.62-29.07,23.73-7.65,6.09-12.98,10.24-15.51,11.63l4.25-3.3c-3.1,2.04-6.21,4.07-9.34,6.07l-.7,1.3c-7.24,5.3-16.13,11.7-25.17,17.27-2.26,1.39-4.52,2.74-6.76,4.01-2.26,1.25-4.47,2.48-6.6,3.67-2.13,1.2-4.14,2.31-6.16,3.13-2.01.84-3.97,1.5-5.8,2.08-1.58.63-3.28,1.27-4.8,1.85l-5.02,1.1c-3.4.73-6.77,1.56-10.18,1.76-3.39.19-6.86-.42-10.12-1.45-1.61-.57-3.14-1.42-4.4-2.59-1.23-1.19-2.21-2.7-2.6-4.41.54,2.53,2.33,4.73,4.62,6.09,2.29,1.41,5.02,2.01,7.72,2.53,1.36.23,2.75.37,4.15.37,1.4,0,2.81-.12,4.21-.3,2.8-.37,5.59-.94,8.4-1.45l-1.16.05c1.33-.26,2.89-.56,4.64-.9,1.67-.59,3.54-1.24,5.5-1.97,1.96-.74,4.04-1.54,6.1-2.54,2.06-.99,4.08-2.22,6.15-3.41,8.34-4.6,16.55-9.82,21.78-13.27-4.11,2.88-8.29,5.67-12.55,8.32,3.71-2.23,5.72-3.44,6.58-3.96.87-.5.62-.28-.22.32-1.67,1.21-5.72,3.85-7.8,5.11-3.78,2.14-6.95,3.95-9.66,5.49-2.7,1.58-5.11,2.7-7.16,3.52-2.06.84-3.78,1.48-5.29,2.04-.75.28-1.46.54-2.13.79-.34.13-.68.25-1.01.38-.18.08-.4.1-.57.14l-.49.1c-2.59.54-4.9,1.1-8.24,1.77-1.68.32-3.62.7-6.06.83-2.43.14-5.37-.12-8.64-1-1.47-.39-3.38-1.05-5.04-2.14-1.7-1.06-3.09-2.65-3.88-4.16-.8-1.52-.97-2.9-1-3.52-.02-.63,0-.53.2.59-.19-1.05-.23-2.23-.04-3.47.22-1.26.57-2.43,1.01-3.73.45-1.27,1.01-2.65,1.98-3.9.48-.62,1.06-1.18,1.61-1.67.54-.5,1.04-.98,1.48-1.53,3.74-4.77,8-9.92,11.07-15.23,3.18-5.26,4.54-10.87,4.52-15.06,0-.52.04-1.02,0-1.5-.04-.48-.07-.93-.1-1.35-.03-.43-.07-.82-.1-1.2-.06-.37-.12-.71-.18-1.02-.23-1.24-.38-2-.51-2.14-.25-1.3-.35-1.79-.57-2.97,0,1.32.25,3.34.28,5.97-.03,2.61-.23,5.81-1.28,9.25-.48,1.73-1.28,3.5-2.19,5.32-1.01,1.8-2.11,3.67-3.51,5.55-2.71,3.79-6.22,7.73-9.91,12.04Z"/>
      </g>
      <path class="cls-2" d="M200.39,285.28c-.09,13.46-5.05,25.68-10.11,38.43,5.02-.34,7.33-3.21,9.94-5.39,21.79-18.22,41.29-38.83,60.58-59.61,5.88-6.33,10.89-13.61,15.51-20.97,5.58-8.89,3.46-12.67-7.08-13.77-11.24-1.17-22.41.1-33.56,1.55-42.28,5.51-84.55,10.5-125.06,25.53-27.36,10.15-55.3,18.93-84.18,23.99-2.94.52-5.85.89-8.69.97-12.58.39-21.34-12.95-16.29-24.87,6.69-15.8,17.07-29.33,29.15-41.61,24.19-24.6,50.34-47.05,77.37-68.37,11.13-8.78,20.18-19.13,26.61-31.47,5.48-10.51,9.51-21.61,13.96-32.93,7.09-18.02,11.41-32.9,13.23-50.34.79-7.55,1.05-14.54,6.09-21.98,2.16-2.23,10.51.01,10.79,0,21.58,3.72,14.38,2.23,24.45,5.21,9.16,2.71,13.79,8.05,17.93,17.17,10.58,23.31,24.21,44.97,39.82,65.15,17.2,22.23,39.46,38.15,67.13,46.06-7.06,3.23-12.68,1.43-23.47,2.52-20.86-.74-32.07-.31-46.15-9.56-12.14-7.98-23.84-16.53-32.57-28.51-1.3-1.78-2.56-1.36-6.15-1.36-9.03,0-16.28-.93-24.79.54-14.19,2.45-26.88,16.47-28.32,33.25-.48,5.61-2.06,8.11-7.05,9.62-48.45,14.66-85.05,47.03-119.94,81.93-1.14,1.14-2.24,2.36-3.11,3.7-1.85,2.85-5.46,5.4-3.3,9.37,1.81,3.34,5.56,2.71,8.71,2.84,15.53.68,30.71-2.7,45.73-5.54,47.95-9.07,95.67-19.46,143.96-26.5,19.33-2.82,39.17-3.3,58.47.76,25.51,5.37,32.64,26.3,16.63,47.18-15.9,20.74-36.56,36.31-56.83,52.19-16.98,13.3-34,26.57-52.92,37.15-7.84,4.39-7.45,4.9-20.4,9.36-12.23,2.23-15.64,3.62-24.18,1.19-6.42-1.82-9.67-6.64-8.18-12.35,1.86-7.12,3.6-6.69,5.74-9.43,10.99-14.04,19-23.46,14.4-41.15M196.45,50.41c-.16-.4-.73-.37-.83.06-1.94,8.09-7.14,14.57-8.5,21.11-1.03,4.94-.55,5.02,5.73,7.44,5.86,2.26,12.28.49,18.26,3.2-6.41-10.37-9.91-19.8-14.66-31.8Z"/>
      <path class="cls-2" d="M256.49,95.91c10.82,6.9,23.84,15.89,35.45,21.94,13.94,7.18,28.89,15.27,42.94,21.99-.17.35-1.59.31-.5,1.05,4.45,2.75,4.15,3.42,3.82,4.13-.16.36-3.56-1.65-2.54-.75-3.56-1.65-9.53-4.39-6.16-2.31,1.01.94,5.91,2.85,6.86,3.91.95,1.08-1.68.5-.73,1.58,1.2.56,3.61,1.65,4.83,2.18,1.06.88-1.68.53-.47,1.06,1.75.98,3.89,1.94,6.25,2.86,1.19.45,2.42.91,3.72,1.32,1.31.42,2.63.83,4.16,1.14-.04.19.25.44.21.61-.02.08-.11.14-.37.16-.29,0-.82-.04-1.55-.18-3.15-.83-5.9-1.89-8.68-2.98-2.76-1.1-5.46-2.26-8.14-3.46-5.36-2.4-10.64-4.92-15.88-7.53-10.48-5.22-20.83-10.75-31.04-16.54-10.21-5.81-20.28-11.86-30.07-18.39-4.89-3.28-9.72-6.67-14.41-10.35-2.34-1.85-4.65-3.77-6.91-5.86-1.12-1.07-2.24-2.15-3.33-3.37-1.09-1.23-2.16-2.51-3.17-4.25-.22-.44-.41-.77-.57-1.17-.16-.4-.28-.75-.38-1.05-.19-.71-.25-1.23-.27-1.52.03-.16.08-.22.15-.19.04.02.08.05.12.11.05.07.13.24.21.41.31.74.86,1.78,1.56,2.64.69.92,1.5,1.75,2.31,2.53-1.08-1.07-.62-1.38-1.63-2.64.25-.14.98.39,2.12,1.32,1.14.94,2.71,2.26,4.73,4.03-.98-.91-1.92-1.87-2.84-2.88-.74-1.16.43-.37.72-.64.89.99,1.83,1.91,1.96,1.77.14-.14.41-.41.54-.55-.94-.9-2.69-2.8-3.4-3.84.75,1.02,1.61,1.98,1.75,1.85.14-.13.43-.39.58-.52,1.78,1.73,4.4,4.61,6.53,6.1l.37-.45c-1.87-1.78-4.85-4.2-6.47-6.04.98.78,1.12.64,1.4.37,2.68,2.49,5.29,5.41,8.69,7.33-1.02-.79-2.02-1.59-2.99-2.41,2.53.9,7.17,5.4,10.49,7.48Z"/>
      <path class="cls-2" d="M158.07,323.72c1.86-3.19,3.94-6.64,5.55-10.3,1.58-3.66,2.65-7.55,2.69-11.1,0-2.13-.16-4.26-.43-6.39-.31-2.12-.79-4.23-1.4-6.3-1.3-4.12-3.22-8.09-5.66-11.63.35-.24,1.3,0,1.06-.72-.54-1.4-.72-2.21-.63-2.75.09-.54.43-.8.77-1.07.35-.26,1.4,1.84,1.28.97,1.37,1.87,3.53,5.12,2.69,2.89-.01-.45-.53-1.29-1.08-2.11-.53-.83-1.05-1.67-1.05-2.17.02-1.03,1.52-.13,1.55-1.15-.5-.65-1.48-1.97-2.04-2.58-.21-.9,1.53-.19.99-.82-1.26-2.23-3.75-4.51-6.15-6.79.3-.29-.03-1.22,1.33-.2,5.42,4.97,10.35,10.87,13.83,17.86,3.5,6.95,5.27,15.07,4.66,23.05-.55,7.99-3.31,15.61-7.27,22.18-3.96,6.6-9.05,12.25-14.64,17.05-2.65,2.09-1.31-.26.08-2.38-.47.71-.9.24-1.37.95-.43-.48.1-2.34,2.23-4.76-.56.58-1.16,1.12-1.73,1.69-.73.4-.44-.47-.74-.78.57-.55,1.15-1.11,1-1.26-.15-.15-.45-.46-.6-.61-.57.54-1.68,1.65-2.28,2.16.59-.52,1.15-1.08,1-1.23-.15-.16-.44-.47-.59-.62.98-1.21,2.91-2.57,3.8-3.87l-.47-.43c-1.18.99-2.64,2.78-3.77,3.84.41-.69.26-.84-.04-1.15,1.49-1.72,3.51-2.97,4.52-5.1l-1.5,1.69c.24-1.81,3.27-4.11,4.4-6.08Z"/>
    </g>
  </g>
</svg>